<svg width="35" height="33" viewBox="0 0 35 33" fill="none" xmlns="http://www.w3.org/2000/svg">
<path fill-rule="evenodd" clip-rule="evenodd" d="M3.88192 4.0503H8.35633L9.98569 2.1881C10.4367 1.67269 11.0262 1.40519 11.7111 1.40519H12.875L11.5525 4.0503H15.9609L18.997 1.01422C19.3232 0.687994 19.7203 0.523438 20.1817 0.523438H21.2511L17.7639 6.72301C17.459 7.2649 16.9254 7.57708 16.3037 7.57708H0.53125V7.40097C0.53125 5.55546 2.03649 4.0503 3.88192 4.0503Z" fill="#ED8515"/>
<path fill-rule="evenodd" clip-rule="evenodd" d="M26.7012 31.9727H32.7747C33.1587 31.9727 33.472 31.6595 33.472 31.2754V26.4961H26.0039V31.2754C26.0039 31.6595 26.3171 31.9727 26.7012 31.9727Z" fill="#F0B16E"/>
<path fill-rule="evenodd" clip-rule="evenodd" d="M26.7012 23.0117H32.7747C33.1587 23.0117 33.472 23.3249 33.472 23.709V27.4925H26.0039V23.709C26.0039 23.325 26.3171 23.0117 26.7012 23.0117Z" fill="#F9D7B1"/>
<path fill-rule="evenodd" clip-rule="evenodd" d="M26.2379 2.09766H33.2372C33.9138 2.09766 34.4673 2.65118 34.4673 3.32778V18.293C34.4673 18.9696 33.9137 19.5231 33.2372 19.5231H26.2379C25.5613 19.5231 25.0078 18.9696 25.0078 18.293V3.32778C25.0077 2.65118 25.5613 2.09766 26.2379 2.09766Z" fill="#F9D7B1"/>
<path fill-rule="evenodd" clip-rule="evenodd" d="M14.0899 18.0977H18.8049C20.846 18.0977 22.5159 19.7675 22.5159 21.8086V30.8122C22.5159 31.449 21.9965 31.9683 21.3597 31.9683H11.5351C10.8983 31.9683 10.3789 31.4489 10.3789 30.8122V21.8086C10.379 19.7675 12.0489 18.0977 14.0899 18.0977Z" fill="#F9D7B1"/>
<path d="M19.1046 16.9997C20.5714 15.5329 20.5714 13.1546 19.1046 11.6878C17.6377 10.221 15.2595 10.221 13.7927 11.6878C12.3258 13.1546 12.3258 15.5329 13.7927 16.9997C15.2595 18.4665 17.6377 18.4665 19.1046 16.9997Z" fill="#F0B16E"/>
<path fill-rule="evenodd" clip-rule="evenodd" d="M14.4705 22.1367H18.4341C18.7746 22.1367 19.053 22.4152 19.053 22.7556V27.2973C19.053 27.6377 18.7746 27.9162 18.4341 27.9162H14.4705C14.13 27.9162 13.8516 27.6377 13.8516 27.2973V22.7556C13.8516 22.4152 14.13 22.1367 14.4705 22.1367Z" fill="#F49D3C"/>
<path fill-rule="evenodd" clip-rule="evenodd" d="M21.9901 30.8239C21.9901 31.169 21.7075 31.4496 21.361 31.4496H11.5375C11.1956 31.4496 10.913 31.169 10.913 30.8239V21.8204C10.913 20.2062 12.121 18.8698 13.68 18.6668L14.3865 21.6238C13.7893 21.6669 13.3198 22.1634 13.3198 22.7685V27.31C13.3198 27.9442 13.8349 28.4596 14.4686 28.4596H18.4345C19.0681 28.4596 19.5832 27.9441 19.5832 27.31V22.7684C19.5832 22.1633 19.1091 21.6669 18.5165 21.6237L19.2186 18.6667C20.7822 18.8697 21.9901 20.2062 21.9901 21.8203L21.9901 30.8239ZM13.2242 14.3525C13.2242 12.5736 14.6737 11.1263 16.4516 11.1263C18.2294 11.1263 19.679 12.5736 19.679 14.3525C19.679 16.1314 18.2294 17.5787 16.4516 17.5787C14.6737 17.5787 13.2242 16.1314 13.2242 14.3525ZM17.4271 21.6195L18.1382 18.6392H14.7649L15.476 21.6195H17.4271ZM14.4686 22.6801C14.423 22.6801 14.382 22.721 14.382 22.7684V27.31C14.382 27.3574 14.423 27.399 14.4686 27.399H18.4345C18.48 27.399 18.521 27.3574 18.521 27.31V22.7684C18.521 22.721 18.48 22.6801 18.4345 22.6801H14.4686ZM19.2414 17.6005C20.1576 16.8143 20.7366 15.6498 20.7366 14.3524C20.7366 11.9887 18.8129 10.0655 16.4516 10.0655C14.0857 10.0655 12.162 11.9888 12.162 14.3524C12.162 15.6498 12.7455 16.8143 13.6573 17.6005C11.5239 17.8197 9.85095 19.6286 9.85095 21.8204V30.8239C9.85095 31.7536 10.6076 32.5101 11.5376 32.5101H21.3611C22.2956 32.5101 23.0523 31.7536 23.0523 30.8239V21.8204C23.0523 19.6286 21.3792 17.8198 19.2414 17.6005ZM30.2683 6.35145C30.2683 6.64654 30.0348 6.8817 29.7258 6.8817C29.4341 6.8817 29.197 6.64414 29.197 6.35145C29.197 6.05635 29.4305 5.82111 29.7395 5.82111C30.0313 5.82119 30.2683 6.05868 30.2683 6.35145ZM30.2683 8.81699V15.2893C30.2683 15.582 30.0313 15.8195 29.7395 15.8195C29.4477 15.8195 29.2061 15.582 29.2061 15.2893V9.34725H28.2443C27.9525 9.34725 27.7154 9.10968 27.7154 8.81699C27.7154 8.52423 27.9525 8.28666 28.2443 8.28666H29.7395C30.0313 8.28666 30.2683 8.52423 30.2683 8.81699ZM33.9379 18.3027V3.33807C33.9379 2.95208 33.6234 2.63813 33.2358 2.63813H26.2386C25.8512 2.63813 25.5366 2.95208 25.5366 3.33807V18.3027C25.5366 18.6887 25.8511 19.0027 26.2386 19.0027H33.2358C33.6234 19.0027 33.9379 18.6887 33.9379 18.3027ZM32.9441 23.7151V26.969H26.5349V23.7151C26.5349 23.6247 26.6124 23.5483 26.7036 23.5483H32.7755C32.8666 23.5483 32.9441 23.6247 32.9441 23.7151ZM32.7755 31.4496H26.7036C26.6124 31.4496 26.5349 31.3732 26.5349 31.2828V28.0298H32.9441V31.2828C32.9441 31.3732 32.8666 31.4496 32.7755 31.4496ZM33.2358 1.57729H26.2386C25.2676 1.57729 24.479 2.36726 24.479 3.33799V18.3026C24.479 19.2735 25.2676 20.0632 26.2386 20.0632H29.2062V22.4877H26.7036C26.0243 22.4877 25.4728 23.0385 25.4728 23.7151V31.2827C25.4728 31.9593 26.0244 32.5101 26.7036 32.5101H32.7755C33.4501 32.5101 34.0017 31.9593 34.0017 31.2827V23.7151C34.0017 23.0385 33.4501 22.4877 32.7755 22.4877H30.2683V20.0633H33.2358C34.2068 20.0633 35 19.2735 35 18.3027V3.33807C35 2.36726 34.2068 1.57729 33.2358 1.57729ZM6.24971 31.9799C6.24971 32.2727 6.01271 32.5101 5.7209 32.5101H0.797752C0.506027 32.5101 0.268939 32.2726 0.268939 31.9799C0.268939 31.6871 0.505946 31.4496 0.797752 31.4496H5.7209C6.01263 31.4496 6.24971 31.6872 6.24971 31.9799ZM6.24971 27.1508C6.24971 27.4443 6.01271 27.6811 5.7209 27.6811H0.797752C0.506027 27.6811 0.268939 27.4443 0.268939 27.1508C0.268939 26.858 0.505946 26.6205 0.797752 26.6205H5.7209C6.01263 26.6204 6.24971 26.858 6.24971 27.1508ZM6.24971 22.3223C6.24971 22.6151 6.01271 22.8526 5.7209 22.8526H0.797752C0.506027 22.8526 0.268939 22.6151 0.268939 22.3223C0.268939 22.0296 0.505946 21.792 0.797752 21.792H5.7209C6.01263 21.792 6.24971 22.0296 6.24971 22.3223ZM6.24971 17.4939C6.24971 17.7866 6.01271 18.0242 5.7209 18.0242H0.797752C0.506027 18.0242 0.268939 17.7866 0.268939 17.4939C0.268939 17.2011 0.505946 16.9636 0.797752 16.9636H5.7209C6.01263 16.9636 6.24971 17.2012 6.24971 17.4939ZM6.24971 12.6648C6.24971 12.9581 6.01271 13.1951 5.7209 13.1951H0.797752C0.506027 13.1951 0.268939 12.9581 0.268939 12.6648C0.268939 12.372 0.505946 12.1345 0.797752 12.1345H5.7209C6.01263 12.1345 6.24971 12.372 6.24971 12.6648ZM3.87924 4.58738H8.35566C8.50609 4.58738 8.65196 4.52167 8.75225 4.40645L10.3842 2.54473C10.7352 2.14518 11.1774 1.94219 11.7107 1.94219H12.0162L11.0771 3.82027C10.9022 4.17009 11.1546 4.58738 11.5512 4.58738H15.9593C16.1006 4.58738 16.2328 4.53145 16.3331 4.43261L19.369 1.39645C19.6822 1.08426 19.9554 1.06059 20.3446 1.06059L17.2994 6.47019C17.0897 6.84648 16.7342 7.05356 16.3011 7.05356H1.08041C1.25813 5.66554 2.44332 4.58738 3.87924 4.58738ZM16.3011 8.11416C17.1079 8.11416 17.8281 7.6943 18.2247 6.99002L21.712 0.790451C21.9105 0.435342 21.6516 0 21.2516 0H20.1803C19.574 0 19.0499 0.217751 18.6213 0.646193L15.7403 3.52678H12.4081L13.3472 1.64958C13.5228 1.2976 13.2662 0.881595 12.8731 0.881595H11.7107C10.8719 0.881595 10.138 1.21544 9.58642 1.84615L8.114 3.5267H3.87924C1.74129 3.5267 0 5.26815 0 7.40763V7.58374C0 7.87723 0.237007 8.11408 0.528812 8.11408L16.3011 8.11416Z" fill="#FE9422"/>
</svg>
