<svg width="39" height="39" viewBox="0 0 39 39" fill="none" xmlns="http://www.w3.org/2000/svg">
<g clip-path="url(#clip0_3260_342)">
<path d="M32.8186 6.30859H19.4711C18.6133 6.30859 17.918 7.00397 17.918 7.86174V30.8276C17.918 31.6853 18.6133 32.3807 19.4711 32.3807H36.8749C37.7326 32.3807 38.428 31.6853 38.428 30.8276V11.918C38.428 11.506 38.2644 11.111 37.9731 10.8197L33.9169 6.76349C33.6256 6.47221 33.2306 6.30859 32.8186 6.30859Z" fill="#FEE9D3"/>
<path d="M37.9728 10.8191L33.9165 6.76285C33.8225 6.66877 33.7167 6.58963 33.6039 6.52344V30.827C33.6039 31.6848 32.9086 32.3801 32.0508 32.3801H36.8745C37.7323 32.3801 38.4277 31.6848 38.4277 30.827V11.9173C38.4277 11.5054 38.264 11.1104 37.9728 10.8191Z" fill="#FDC78E"/>
<path d="M37.9735 10.8213L33.9173 6.76509C33.7215 6.56925 33.4782 6.43275 33.2148 6.36328V10.561C33.2148 11.0927 33.646 11.5239 34.1777 11.5239H38.3754C38.3059 11.2605 38.1694 11.0172 37.9735 10.8213Z" fill="#F9B670"/>
<path d="M19.6879 4.23116C19.6879 3.22973 18.8761 2.41797 17.8747 2.41797H11.6263C9.32154 2.41797 7.45312 4.28631 7.45312 6.59112V11.2244H22.1747V6.65678C22.1747 5.65535 21.3629 4.84359 20.3615 4.84359H20.3004C19.9621 4.84351 19.6879 4.56937 19.6879 4.23116Z" fill="#F8A145"/>
<path d="M20.6627 22.5766L14.8151 22.3711L8.96499 22.5766L3.61193 24.2714C1.80102 24.8448 0.570312 26.5254 0.570312 28.4249V34.9807C0.570312 35.8643 1.28671 36.5807 2.17038 36.5807H27.4574C28.3411 36.5807 29.0574 35.8643 29.0574 34.9807V28.4249C29.0574 26.5253 27.8267 24.8447 26.0158 24.2714L20.6627 22.5766Z" fill="#FFAF5A"/>
<path d="M26.0148 24.2722L20.6617 22.5774L15.793 22.4062L15.838 23.9739L21.191 25.6687C23.002 26.242 24.2327 27.9226 24.2327 29.8222V36.378C24.2327 36.4472 24.2269 36.5148 24.2183 36.5816H27.4563C28.3401 36.5816 29.0564 35.8652 29.0564 34.9815V28.4257C29.0564 26.5262 27.8257 24.8456 26.0148 24.2722Z" fill="#E8963F"/>
<path d="M20.6643 22.5766L14.8167 22.3711L8.96663 22.5766C8.71945 26.8828 13.3125 33.6632 15.0692 36.5805C16.826 33.6632 20.9115 26.8828 20.6643 22.5766Z" fill="#FFD7AD"/>
<path d="M17.5572 34.4393L15.742 27.582H13.8893L12.3516 34.4994L15.0682 36.5823L17.5572 34.4393Z" fill="#FF9422"/>
<path d="M18.0899 22.2545V18.1172H11.5352V22.2545C11.5352 24.0645 14.8125 26.0381 14.8125 26.0381C14.8125 26.0381 18.0899 24.0645 18.0899 22.2545Z" fill="#F9D8B4"/>
<path d="M22.1747 10.6174H20.9218C20.2249 10.6174 19.66 10.0525 19.66 9.35568V8.66518C19.66 7.75752 18.772 7.1157 17.9102 7.40058C15.9002 8.06487 13.7298 8.06503 11.7198 7.40104L11.7175 7.40027C10.8556 7.11554 9.96771 7.75737 9.96771 8.66496V9.35576C9.96771 10.0526 9.40282 10.6175 8.706 10.6175H7.45312V12.6807C7.45312 13.2078 7.88053 13.6352 8.40771 13.6352C8.57407 13.6352 8.70943 13.7656 8.71986 13.9316C8.92111 17.1229 11.5717 19.6494 14.8138 19.6494C18.056 19.6494 20.7066 17.1229 20.9078 13.9316C20.9183 13.7656 21.0537 13.6352 21.22 13.6352C21.7472 13.6352 22.1746 13.2078 22.1746 12.6807V10.6174H22.1747Z" fill="#F9D8B4"/>
<path d="M20.3621 4.84359H20.301C19.9628 4.84359 19.6886 4.56944 19.6886 4.23116C19.6886 3.22973 18.8768 2.41797 17.8754 2.41797H17.3516V11.2244H22.1753V6.65686C22.1754 5.65543 21.3635 4.84359 20.3621 4.84359Z" fill="#FF9422"/>
<path d="M20.9227 10.6172C20.2259 10.6172 19.661 10.0523 19.661 9.35544V8.66494C19.661 7.75728 18.7729 7.11545 17.9111 7.40034C17.7261 7.4615 17.5394 7.51505 17.3519 7.56494V13.635C17.3109 16.346 15.5046 18.6288 13.0312 19.3838C13.5955 19.5559 14.1942 19.6492 14.8149 19.6492C18.0571 19.6492 20.7076 17.1227 20.9089 13.9313C20.9193 13.7653 21.0547 13.635 21.221 13.635C21.7482 13.635 22.1756 13.2076 22.1756 12.6804V10.6172H20.9227Z" fill="#FAB76F"/>
<path d="M14.8125 24.7881L13.0673 26.2975C12.6364 26.6702 11.9799 26.5996 11.6381 26.1438L8.96484 22.5788L9.92948 21.7384C10.4017 21.3271 11.1082 21.3387 11.5666 21.7655L14.8125 24.7881Z" fill="#FFA94E"/>
<path d="M14.8164 24.7881L16.5616 26.2975C16.9925 26.6702 17.649 26.5996 17.9908 26.1438L20.664 22.5788L19.6994 21.7384C19.2272 21.3271 18.5206 21.3387 18.0623 21.7655L14.8164 24.7881Z" fill="#FFA94E"/>
<path d="M8.96366 22.5781L8.5371 22.6574C7.59547 22.8325 6.77464 23.4178 6.32408 24.263C6.12588 24.6348 5.98047 25.0493 5.98047 25.465C5.98047 26.091 6.94892 26.8661 7.53643 27.2786C7.73806 27.4202 7.76937 27.7308 7.59897 27.915C7.26655 28.2745 6.85294 28.886 6.97809 29.6149C7.34006 31.7222 11.1286 34.8278 13.4896 36.582H15.0662C13.3096 33.6647 8.71649 26.8843 8.96366 22.5781Z" fill="#EE800C"/>
<path d="M16.6425 36.582C19.0036 34.8278 22.7921 31.7222 23.154 29.6149C23.2793 28.886 22.8656 28.2745 22.5332 27.915C22.3628 27.7308 22.3941 27.4202 22.5957 27.2786C23.1832 26.8661 24.1517 26.091 24.1517 25.465C24.1517 25.1386 24.062 24.813 23.9276 24.5082C23.4911 23.5185 22.5517 22.8429 21.4805 22.6928L20.6615 22.5781C20.9086 26.8843 16.8231 33.6647 15.0664 36.582H16.6425Z" fill="#EE800C"/>
<path d="M12.8789 26.4227L13.8899 27.5795H15.7427L16.7313 26.4129L14.8163 24.7852L12.8789 26.4227Z" fill="#FFD064"/>
<path d="M25.5989 15.9551C26.0287 15.9551 26.4431 16.0816 26.7973 16.3209C27.0588 16.4974 27.4139 16.4288 27.5905 16.1673C27.7672 15.9059 27.6984 15.5508 27.437 15.3741C26.8931 15.0067 26.2575 14.8125 25.599 14.8125C23.7868 14.8125 22.3125 16.2868 22.3125 18.099C22.3125 19.9112 23.7868 21.3855 25.599 21.3855C26.438 21.3855 27.2011 21.0652 27.7472 20.4151C27.9501 20.1734 27.9186 19.8131 27.677 19.6103C27.4353 19.4074 27.0749 19.4389 26.8721 19.6805C26.5434 20.0723 26.1002 20.243 25.599 20.243C24.4168 20.243 23.4551 19.2813 23.4551 18.0991C23.4551 16.9169 24.4167 15.9551 25.5989 15.9551Z" fill="#FF9422"/>
<path d="M31.532 21.4232C31.7746 21.4232 31.9908 21.2699 32.0711 21.0408L34.0014 15.5338C34.1057 15.2361 33.949 14.9101 33.6512 14.8057C33.3535 14.7015 33.0275 14.8581 32.9231 15.1559L31.5373 19.1096L30.182 15.1657C30.0794 14.8672 29.7543 14.7085 29.4561 14.8111C29.1577 14.9136 28.9989 15.2386 29.1015 15.537L30.9917 21.0375C31.0707 21.2677 31.2868 21.4224 31.5302 21.4231C31.5308 21.4232 31.5314 21.4232 31.532 21.4232Z" fill="#FF9422"/>
<path d="M26.1892 23.7283L23.226 22.79C22.2117 22.0705 21.292 22.1212 20.911 22.0358L20.0743 21.3068C19.6718 20.9562 19.1562 20.8159 18.6623 20.8807V18.9943C20.2031 17.904 21.269 16.1779 21.4604 14.1875C22.1879 14.0718 22.7458 13.4401 22.7458 12.6805C22.7458 11.4286 22.7458 7.81489 22.7458 6.65783C22.7458 5.34296 21.6761 4.27327 20.3613 4.27327H20.3002C20.2776 4.27327 20.2591 4.25484 20.2591 4.23214C20.2591 2.91734 19.1894 1.84766 17.8746 1.84766H11.626C9.00999 1.84766 6.8816 3.97597 6.8816 6.59202V12.6805C6.8816 13.4401 7.43948 14.0719 8.167 14.1875C8.35826 16.1779 9.42429 17.904 10.965 18.9943V20.8804C10.4719 20.8164 9.95726 20.9569 9.55546 21.3069L8.70835 22.0449C8.54572 22.0858 7.96461 22.1278 7.27297 22.5149L3.44053 23.7283C1.3826 24.3798 0 26.2678 0 28.4264V34.9822C0 36.1795 0.974086 37.1536 2.17136 37.1536H27.4584C28.6556 37.1536 29.6297 36.1795 29.6297 34.9822V28.4264C29.6297 26.2678 28.2471 24.3798 26.1892 23.7283ZM19.3238 22.1685L19.8882 22.6601C17.4504 25.8363 17.4952 26.1201 17.0473 25.934L15.6753 24.7679L18.4432 22.1905C18.4513 22.1838 18.4595 22.177 18.4675 22.1699C18.4696 22.1681 18.4715 22.166 18.4735 22.1641C18.7185 21.9553 19.0788 21.955 19.3238 22.1685ZM19.9618 24.4664C19.5836 26.6325 18.499 29.1507 17.3447 31.4022L16.371 27.7238L16.9166 27.0799C17.5179 27.1937 18.1044 26.9434 18.4475 26.4858L19.9618 24.4664ZM14.8148 25.5417L15.9156 26.4938L15.4777 27.0105H14.1492L13.7048 26.5019L14.8148 25.5417ZM14.8148 24.0079L12.1075 21.4868V19.6458C12.937 20.0152 13.8532 20.2205 14.8136 20.2205C15.774 20.2205 16.6902 20.0152 17.5197 19.6458V21.489L14.8148 24.0079ZM8.02417 6.5921C8.02417 4.60607 9.63993 2.99031 11.626 2.99031H17.8746C18.5594 2.99031 19.1165 3.54743 19.1165 4.23229C19.1165 4.88493 19.6475 5.41593 20.3002 5.41593H20.3613C21.0461 5.41593 21.6032 5.97305 21.6032 6.65791V10.0461H20.9216C20.5409 10.0461 20.2312 9.7364 20.2312 9.35569V8.66519C20.2312 7.37309 18.9691 6.44889 17.7307 6.85817C15.8503 7.47958 13.7792 7.47973 11.9056 6.86083C11.9025 6.85977 11.8995 6.85878 11.8964 6.85779C10.6635 6.45042 9.39626 7.36669 9.39626 8.66496V9.35569C9.39626 9.7364 9.08654 10.0461 8.70584 10.0461H8.02417V6.5921ZM9.28977 13.8956C9.26037 13.4292 8.8728 13.0639 8.40747 13.0639C8.19609 13.0639 8.02417 12.8919 8.02417 12.6806V11.1887H8.70584C9.71656 11.1887 10.5388 10.3664 10.5388 9.35569V8.66496C10.5388 8.13625 11.0576 7.78426 11.5313 7.94042C11.5343 7.94148 11.5374 7.94247 11.5404 7.94346C13.6521 8.64105 15.9778 8.64082 18.0893 7.94301C18.583 7.78007 19.0886 8.14722 19.0886 8.66512V9.35561C19.0886 10.3664 19.9109 11.1886 20.9216 11.1886H21.6032V12.6805C21.6032 12.8918 21.4313 13.0638 21.2199 13.0638C20.7545 13.0638 20.3669 13.4291 20.3376 13.8955C20.1543 16.8016 17.7279 19.078 14.8137 19.078C11.8994 19.078 9.47311 16.8016 9.28977 13.8956ZM10.306 22.1684C10.5504 21.9554 10.9097 21.9554 11.1546 22.1627C11.1572 22.165 11.1594 22.1676 11.162 22.1699C11.1691 22.176 11.1766 22.1822 11.1856 22.1896L13.9544 24.7679L12.5683 25.9395C12.4047 26.0002 12.2106 25.9526 12.0964 25.8005L9.74162 22.6602L10.306 22.1684ZM11.1823 26.4859C11.5215 26.9381 12.1002 27.189 12.6954 27.0835L13.2693 27.7402L12.502 31.1916C11.3007 29.0259 10.1489 26.6073 9.71229 24.5256L11.1823 26.4859ZM13.6824 36.011C12.4588 35.0956 11.3796 34.2104 10.4733 33.3782C10.2409 33.1647 9.87957 33.18 9.66613 33.4126C9.45278 33.645 9.46816 34.0064 9.70056 34.2198C10.3278 34.7958 11.0341 35.3953 11.8098 36.0111H5.87841V32.8389C5.87841 32.5233 5.62263 32.2676 5.30712 32.2676C4.99162 32.2676 4.73583 32.5233 4.73583 32.8389V36.0111H2.17136C1.6041 36.0111 1.14258 35.5495 1.14258 34.9823V28.4265C1.14258 26.7684 2.20464 25.3181 3.78536 24.8177L5.71731 24.206C5.51469 24.6422 5.41155 25.0649 5.41155 25.465C5.41155 26.3934 6.53806 27.2661 7.0737 27.6494C6.5309 28.2907 6.29827 29.0177 6.41748 29.7116C6.54347 30.4454 6.99182 31.2722 7.78789 32.2396C7.98837 32.4834 8.34836 32.5183 8.59203 32.3177C8.83563 32.1172 8.87059 31.7572 8.67011 31.5136C7.85142 30.5188 7.60561 29.8794 7.54353 29.5182C7.45982 29.0308 7.75681 28.5883 8.02075 28.3029C8.21468 28.0932 8.30814 27.8067 8.27729 27.517C8.24675 27.23 8.09722 26.9726 7.86711 26.8112C6.91054 26.1395 6.55413 25.629 6.55413 25.465C6.55413 25.19 6.64714 24.876 6.83064 24.5318C7.17029 23.8946 7.74965 23.4621 8.39429 23.2779C8.5883 27.2041 11.8562 32.4748 13.857 35.7019C13.923 35.8084 13.9867 35.9113 14.0485 36.0111L13.6824 36.011ZM14.8281 35.0999C14.3967 34.4041 13.8819 33.5737 13.3453 32.6634L14.348 28.1532H15.3028L16.5557 32.8866C16.021 33.8595 15.5027 34.7443 15.0637 35.4802C14.9881 35.3581 14.9099 35.2319 14.8281 35.0999ZM16.0773 36.011C18.1019 32.6134 21.0992 27.1878 21.2403 23.2357C21.2612 23.244 22.7887 23.3367 23.407 24.7386C23.5235 25.0027 23.5825 25.247 23.5825 25.4648C23.5825 25.6287 23.226 26.1393 22.2696 26.8109C22.0395 26.9725 21.89 27.2298 21.8593 27.5169C21.8284 27.8067 21.922 28.0931 22.1159 28.3028C22.3798 28.5882 22.6768 29.0307 22.5932 29.5181C22.3546 30.9068 20.1194 33.2688 16.454 36.0109L16.0773 36.011ZM28.4871 34.9823C28.4871 35.5495 28.0256 36.0111 27.4584 36.0111H24.8914V32.8389C24.8914 32.5233 24.6357 32.2676 24.3202 32.2676C24.0047 32.2676 23.7489 32.5233 23.7489 32.8389V36.0111H18.3258C20.0433 34.647 23.3491 31.8673 23.7193 29.7116C23.8385 29.0177 23.606 28.2908 23.0631 27.6494C23.5987 27.2662 24.7252 26.3935 24.7252 25.465C24.7252 25.1226 24.649 24.7621 24.5001 24.392L25.8444 24.8177C27.4251 25.3181 28.4872 26.7684 28.4872 28.4265L28.4871 34.9823Z" fill="#FF9422"/>
<path d="M38.3787 10.4167L34.3225 6.36053C33.9213 5.95926 33.3878 5.73828 32.8203 5.73828H24.833C24.5175 5.73828 24.2617 5.99399 24.2617 6.30957C24.2617 6.62515 24.5175 6.88086 24.833 6.88086H32.6448V10.5603C32.6448 11.4062 33.333 12.0945 34.179 12.0945H37.8584V30.8285C37.8584 31.3699 37.418 31.8104 36.8765 31.8104H31.7302C31.4147 31.8104 31.1589 32.0661 31.1589 32.3817C31.1589 32.6973 31.4147 32.953 31.7302 32.953H36.8765C38.0479 32.953 39.001 31.9999 39.001 30.8285V11.9189C39.001 11.3515 38.78 10.818 38.3787 10.4167ZM34.1789 10.9519C33.963 10.9519 33.7873 10.7762 33.7873 10.5603V7.44126L37.298 10.9519H34.1789Z" fill="#FF9422"/>
</g>
<defs>
<clipPath id="clip0_3260_342">
<rect width="39" height="39" fill="white"/>
</clipPath>
</defs>
</svg>
