<svg width="43" height="43" viewBox="0 0 43 43" fill="none" xmlns="http://www.w3.org/2000/svg">
<g clip-path="url(#clip0_3260_47)">
<path d="M17.3398 6.2437V0.695312H32.5979V6.2437H26.356L22.1947 9.71144V6.2437H17.3398Z" fill="#FFD8AE"/>
<path d="M26.353 35.3719V42.3073H23.5788L22.1917 39.5331H11.0949L9.70779 42.3073H6.93359V32.5977H26.353V35.3719Z" fill="#FFD8AE"/>
<path d="M26.353 29.8242V32.5984H6.93359V29.8242H26.353Z" fill="#FFD8AE"/>
<path d="M28.434 27.0469V29.8211H5.54688V27.0469H28.434Z" fill="#FFD8AE"/>
<path d="M22.1948 39.5312L23.5819 42.3054H9.71094L11.098 39.5312H22.1948Z" fill="#EB7F0B"/>
<path d="M33.9851 35.3711L34.6787 42.3066H31.9045L31.2109 35.3711H33.9851Z" fill="#FFD8AE"/>
<path d="M38.1458 22.8867V31.2093C38.1458 33.505 36.2802 35.3706 33.9845 35.3706H26.3555V32.5964H32.5974C34.1301 32.5964 35.3716 31.3549 35.3716 29.8222V22.8867H38.1458Z" fill="#FFD8AE"/>
<path d="M33.5544 21.9287C33.8318 21.6513 33.9845 21.2768 33.9845 20.8884C33.9845 20.4861 33.8179 20.1115 33.5544 19.8481C33.3394 19.6398 33.0691 19.4874 32.5974 19.4247V19.418H33.5544C33.8389 19.418 34.1162 19.4803 34.3658 19.612C34.9832 19.9175 35.3716 20.5484 35.3716 21.2351V29.8212C35.3716 31.3539 34.1301 32.5954 32.5974 32.5954H26.3555V29.8212H28.4361V27.047H28.1517C28.3321 27.047 28.5123 26.9708 28.6373 26.8458L33.5544 21.9287Z" fill="#FFD8AE"/>
<path d="M20.8081 27.0466H8.32422V23.759C8.32422 22.8298 8.94157 22.0184 9.83628 21.7617L13.1791 20.8047C13.1791 20.8047 13.8726 22.1918 15.2597 22.1918C16.6468 22.1918 17.3403 20.8047 17.3403 20.8047L20.6831 21.7617C21.5778 22.0184 22.1952 22.8298 22.1952 23.759V24.2724H20.8081C20.4268 24.2724 20.08 24.4252 19.8301 24.6815C19.5737 24.9314 19.421 25.2782 19.421 25.6595C19.421 26.4225 20.0451 27.0466 20.8081 27.0466Z" fill="#FFD8AE"/>
<path d="M32.5954 19.4286C33.0671 19.4913 33.3374 19.6437 33.5524 19.852C33.8159 20.1154 33.9825 20.49 33.9825 20.8923C33.9825 21.2807 33.8298 21.6553 33.5524 21.9326L28.6353 26.8498C28.5103 26.9747 28.3301 27.0509 28.1496 27.0509H20.8051C20.0421 27.0509 19.418 26.4268 19.418 25.6638C19.418 25.2825 19.5707 24.9357 19.8271 24.6858C20.077 24.4294 20.4237 24.2767 20.8051 24.2767H27.047L31.4718 19.852C31.7491 19.5746 32.1237 19.4219 32.5121 19.4219C32.5399 19.4219 32.5676 19.4219 32.5954 19.4286Z" fill="#FFD8AE"/>
<path d="M35.3691 14.5654V15.9525C35.3691 17.8665 33.8154 19.4202 31.9013 19.4202C29.9873 19.4202 28.4336 17.8665 28.4336 15.9525V14.5654C28.4336 12.6514 29.9873 11.0977 31.9013 11.0977C32.8584 11.0977 33.7253 11.4861 34.3565 12.1102C34.9807 12.7414 35.3691 13.6084 35.3691 14.5654Z" fill="#FFD8AE"/>
<path d="M13.1758 18.7266C13.7515 19.1634 14.4728 19.4201 15.2564 19.4201C16.0401 19.4201 16.7614 19.1634 17.3371 18.7266V20.8072C17.3371 20.8072 16.6435 22.1943 15.2564 22.1943C13.8693 22.1943 13.1758 20.8072 13.1758 20.8072V18.7266Z" fill="#FFD8AE"/>
<path d="M18.7245 14.5654V15.9525C18.7245 17.0829 18.1766 18.0955 17.3375 18.7267C16.7618 19.1635 16.0404 19.4202 15.2568 19.4202C14.4732 19.4202 13.7519 19.1635 13.1762 18.7267C12.337 18.0955 11.7891 17.0829 11.7891 15.9525V14.5654C11.7891 12.6514 13.3428 11.0977 15.2568 11.0977C16.2138 11.0977 17.0808 11.4861 17.712 12.1102C18.3361 12.7414 18.7245 13.6084 18.7245 14.5654Z" fill="#FFD8AE"/>
<path d="M21.4994 11.1902L26.6051 6.93548H33.2897V0H16.6445V6.93548H21.4994V11.1902ZM18.0316 5.54839V1.3871H31.9026V5.54839H26.1033L22.8865 8.22911V5.54839H18.0316Z" fill="#FF9422"/>
<path d="M19.418 2.77344H20.8051V4.16053H19.418V2.77344Z" fill="#FF9422"/>
<path d="M22.1953 2.77344H27.7437V4.16053H22.1953V2.77344Z" fill="#FF9422"/>
<path d="M29.1289 2.77344H30.516V4.16053H29.1289V2.77344Z" fill="#FF9422"/>
<path d="M35.3049 41.612L34.7441 35.9976C37.0598 35.6315 38.8387 33.6264 38.8387 31.2088V22.1927H36.0645V21.2343C36.0645 20.2915 35.5464 19.4449 34.7133 19.0107C35.5416 18.2498 36.0645 17.1617 36.0645 15.9507V14.5636C36.0645 12.2686 34.1982 10.4023 31.9032 10.4023C29.6082 10.4023 27.7419 12.2686 27.7419 14.5636V15.9507C27.7419 17.7462 28.8869 19.2749 30.4836 19.8574L26.7612 23.5798H22.8719C22.7943 22.4236 22.0002 21.4158 20.8752 21.0941L18.0323 20.2827V19.0439C18.8812 18.2816 19.4194 17.1797 19.4194 15.9507V14.5636C19.4194 12.2686 17.5531 10.4023 15.2581 10.4023C12.9631 10.4023 11.0968 12.2686 11.0968 14.5636V15.9507C11.0968 17.179 11.6349 18.281 12.4839 19.0439V20.2834L9.64093 21.0948C8.45635 21.4324 7.62903 22.5296 7.62903 23.7623V26.354H4.85484V30.5153H6.24194V41.612H0V42.9991H43V41.612H35.3049ZM29.129 30.5153V27.3347L34.0435 22.4202C34.3987 22.065 34.61 21.5878 34.6574 21.09C34.6635 21.1385 34.6774 21.1842 34.6774 21.2343V29.8217C34.6774 30.9687 33.7438 31.9023 32.5968 31.9023H27.0484V30.5153H29.129ZM27.0484 36.0636H30.5822L31.1369 41.612H27.0484V36.0636ZM31.976 36.0636H33.3564L33.9111 41.612H32.5307L31.976 36.0636ZM36.0645 29.8217V23.5798H37.4516V31.2088C37.4516 33.1208 35.8959 34.6765 33.9839 34.6765H27.0484V33.2894H32.5968C34.5088 33.2894 36.0645 31.7337 36.0645 29.8217ZM29.129 15.9507V14.5636C29.129 13.0336 30.3732 11.7894 31.9032 11.7894C33.4332 11.7894 34.6774 13.0336 34.6774 14.5636V15.9507C34.6774 17.4807 33.4332 18.7249 31.9032 18.7249C30.3732 18.7249 29.129 17.4807 29.129 15.9507ZM27.3356 24.9669L31.9628 20.3396C32.1078 20.1947 32.3082 20.112 32.5128 20.112C32.9415 20.112 33.2903 20.4608 33.2903 20.8896C33.2903 21.0941 33.2077 21.2946 33.0628 21.4395L28.1483 26.354H20.8065C20.4238 26.354 20.1129 26.0431 20.1129 25.6604C20.1129 25.2777 20.4238 24.9669 20.8065 24.9669H27.3356ZM12.4839 14.5636C12.4839 13.0336 13.7281 11.7894 15.2581 11.7894C16.7881 11.7894 18.0323 13.0336 18.0323 14.5636V15.9507C18.0323 17.4807 16.7881 18.7249 15.2581 18.7249C13.7281 18.7249 12.4839 17.4807 12.4839 15.9507V14.5636ZM15.2581 20.112C15.745 20.112 16.2103 20.0233 16.6452 19.8692V20.6142C16.4731 20.8797 15.9953 21.4991 15.2581 21.4991C14.5208 21.4991 14.043 20.8797 13.871 20.6142V19.8692C14.3058 20.0233 14.7711 20.112 15.2581 20.112ZM9.01613 23.7623C9.01613 23.1456 9.43029 22.5977 10.0219 22.4284L12.8791 21.6122C13.2814 22.1365 14.0643 22.8862 15.2581 22.8862C16.4518 22.8862 17.2347 22.1365 17.6371 21.6116L20.4942 22.4277C21.0256 22.5797 21.396 23.0417 21.4702 23.5791H20.8065C19.6595 23.5791 18.7258 24.5127 18.7258 25.6597C18.7258 25.9039 18.7756 26.1355 18.8535 26.3533H9.01613V23.7623ZM6.24194 27.7411H27.7419V29.1282H6.24194V27.7411ZM7.62903 33.2894H9.70968V31.9023H7.62903V30.5153H25.6613V31.9023H11.0968V33.2894H25.6613V41.612H24.0094L22.6223 38.8378H10.668L9.28095 41.612H7.62903V33.2894ZM22.4584 41.612H10.832L11.5255 40.2249H21.7648L22.4584 41.612Z" fill="#FF9422"/>
</g>
<defs>
<clipPath id="clip0_3260_47">
<rect width="43" height="43" fill="white"/>
</clipPath>
</defs>
</svg>
