<svg width="47" height="47" viewBox="0 0 47 47" fill="none" xmlns="http://www.w3.org/2000/svg">
<g clip-path="url(#clip0_3260_391)">
<path d="M40.9566 35.8935C41.2632 35.0224 40.5692 34.0768 39.6228 34.097H36.1079L36.7082 32.3933C37.3636 30.4224 34.5418 29.42 33.8083 31.3349C33.4457 32.3006 33.1015 33.8611 32.1835 34.4661C32.0018 34.1953 31.6915 34.0181 31.3463 34.0181H29.1065C28.5502 34.0181 28.0977 34.4707 28.0977 35.0269V41.1021C28.0977 41.6538 28.5502 42.1063 29.1065 42.1063H31.3463C31.6667 42.1063 31.9467 41.9585 32.134 41.7226C32.4589 41.9145 32.8335 42.0329 33.2172 42.0329H38.3762C39.3042 42.0512 39.9973 41.1507 39.7302 40.2906C40.6178 40.2382 41.2521 39.3258 40.9556 38.4987C42.2105 38.1251 42.2096 36.2671 40.9566 35.8935ZM31.3473 41.1223L29.0826 41.103L29.1074 35.004H31.3473C31.362 35.004 31.3721 35.0187 31.3721 35.0288L31.3473 41.1223ZM40.9226 37.208C40.9226 37.41 40.7601 37.5725 40.5582 37.5725H36.9744C36.3318 37.5771 36.3309 38.5529 36.9744 38.5574H39.6668C40.1653 38.5712 40.1708 39.3129 39.6172 39.3111H36.9735C36.3272 39.323 36.3263 40.2832 36.9735 40.2961H38.4257C38.9407 40.3209 38.9141 41.0516 38.3762 41.0497H33.2172C32.8922 41.0497 32.5773 40.912 32.3561 40.6706V35.5364C33.1878 35.049 33.8129 34.2907 34.1379 33.3755L34.7382 31.6626C35.01 30.964 36.0317 31.3395 35.7774 32.0711L34.9503 34.4293C34.83 34.735 35.0843 35.094 35.4129 35.0839H39.6218C40.1699 35.0829 40.1653 35.8247 39.6659 35.8366H36.9735C36.3272 35.8485 36.3263 36.8096 36.9735 36.8216H39.6659H40.5572C40.7693 36.8188 40.9345 36.9987 40.9226 37.208Z" fill="#FF9522"/>
<path d="M25.8607 7.88829C25.734 7.43756 25.0584 7.52936 24.5957 7.42563L24.2065 6.63801C24.0441 6.30295 23.4924 6.30295 23.3253 6.63801L22.9361 7.42563C22.4844 7.52752 21.7941 7.43756 21.6757 7.88829C21.5123 8.31606 22.1246 8.65571 22.4238 9.00086C22.3853 9.44975 22.086 10.0932 22.4734 10.3448C22.8323 10.6348 23.3225 10.1667 23.7677 9.97575C24.1946 10.1584 24.6912 10.6321 25.0621 10.3448C25.4403 10.0887 25.1511 9.48372 25.1061 9.00086C25.41 8.65479 26.0241 8.31881 25.8607 7.88829ZM24.2359 8.47854C24.0753 8.6245 24.0652 8.8494 24.1175 9.04493C23.8972 8.89897 23.6392 8.89346 23.418 9.04493C23.4914 8.77688 23.4143 8.55473 23.1968 8.38032C23.4015 8.36747 23.6181 8.29036 23.7035 8.09024L23.7677 7.97182C23.8687 8.2362 24.0551 8.36838 24.3341 8.38032L24.2359 8.47854Z" fill="#FF9522"/>
<path d="M30.4922 7.88829C30.3655 7.43756 29.6899 7.52936 29.2272 7.42563L28.838 6.63801C28.6755 6.30295 28.1192 6.30295 27.9568 6.63801L27.5675 7.42563C27.104 7.52936 26.4293 7.43665 26.3026 7.88829C26.1474 8.31973 26.746 8.64561 27.0553 9.00086C27.0168 9.44975 26.7175 10.0932 27.1049 10.3448C27.462 10.6358 27.9632 10.1621 28.3992 9.97575C28.8132 10.152 29.3291 10.6348 29.689 10.3448C29.8413 10.2365 29.9203 10.0492 29.8863 9.86192L29.7385 9.00086C30.0497 8.64377 30.6464 8.31973 30.4922 7.88829ZM28.8674 8.47854C28.704 8.62541 28.6948 8.84756 28.749 9.04493C28.5204 8.8953 28.2735 8.89622 28.0449 9.04493C28.1247 8.76219 28.0513 8.5685 27.8282 8.38032C28.0329 8.36747 28.2496 8.29036 28.335 8.09024L28.3992 7.97182C28.502 8.23987 28.681 8.36563 28.9656 8.38032L28.8674 8.47854Z" fill="#FF9522"/>
<path d="M35.1269 7.88829C34.9984 7.43756 34.3164 7.52844 33.862 7.42563L33.4728 6.63801C33.3057 6.30295 32.754 6.30295 32.5915 6.63801L32.2023 7.42563C31.7387 7.52936 31.064 7.43665 30.9373 7.88829C30.7739 8.31789 31.3881 8.65571 31.691 9.00086C31.6451 9.49014 31.3541 10.0914 31.7406 10.3448C32.0986 10.6367 32.5979 10.1612 33.0303 9.97575C33.4755 10.1676 33.9639 10.6312 34.3246 10.3448C34.7111 10.0932 34.4128 9.44883 34.3742 9.00086C34.6652 8.66213 35.2802 8.31973 35.1269 7.88829ZM33.5021 8.47854C33.3387 8.62541 33.3296 8.84848 33.3837 9.04493C33.1524 8.89622 32.9082 8.8953 32.6796 9.04493C32.7586 8.76862 32.6824 8.56299 32.463 8.38032C32.7421 8.36838 32.9284 8.2362 33.0294 7.97182C33.1322 8.22885 33.3195 8.37206 33.6004 8.38032L33.5021 8.47854Z" fill="#FF9522"/>
<path d="M39.7512 7.88829C39.6337 7.43848 38.9425 7.52752 38.4909 7.42563L38.1016 6.63801C37.9346 6.30295 37.3829 6.30295 37.2204 6.63801L36.8312 7.42563C36.3676 7.52936 35.6929 7.43665 35.5662 7.88829C35.4028 8.31789 36.0179 8.65571 36.3199 9.00086C36.2749 9.48372 35.9857 10.0887 36.3639 10.3448C36.7265 10.6376 37.2314 10.1575 37.6583 9.97575L38.4358 10.3842C38.5983 10.4705 38.8011 10.454 38.9526 10.3448C39.3391 10.0932 39.0407 9.44883 39.0022 9.00086C39.3023 8.65479 39.9137 8.31606 39.7512 7.88829ZM38.1264 8.47854C37.9676 8.62541 37.963 8.84756 38.008 9.04493C37.7868 8.89346 37.5288 8.89897 37.3085 9.04493C37.3875 8.77504 37.3058 8.55748 37.0919 8.38032C37.3709 8.36838 37.5573 8.2362 37.6583 7.97182C37.762 8.23803 37.941 8.36471 38.2246 8.38032L38.1264 8.47854Z" fill="#FF9522"/>
<path d="M44.3861 7.88829C44.2595 7.43756 43.5838 7.52936 43.1212 7.42563L42.7375 6.63801C42.5704 6.30295 42.0187 6.30295 41.8516 6.63801L41.4679 7.42563C41.0044 7.52936 40.3296 7.43665 40.203 7.88829C40.0396 8.3179 40.6537 8.65571 40.9557 9.00086C40.9144 9.44975 40.6115 10.0905 40.9998 10.3448C41.3624 10.6376 41.8672 10.1575 42.2941 9.97575C42.7145 10.1548 43.2203 10.6339 43.5884 10.3448C43.9767 10.0914 43.6738 9.44975 43.6325 9.00086C43.9354 8.65479 44.5495 8.31881 44.3861 7.88829ZM42.7613 8.47854C42.6062 8.62541 42.5888 8.8494 42.6429 9.04493C42.3923 8.89163 42.194 8.89163 41.9434 9.04493C42.0114 8.76311 41.9499 8.56758 41.7268 8.38032C42.0104 8.36471 42.1894 8.23803 42.2932 7.97182C42.3969 8.23803 42.5759 8.36471 42.8596 8.38032L42.7613 8.47854Z" fill="#FF9522"/>
<path d="M44.1682 12.6992C45.6792 12.6992 46.9102 11.4682 46.9102 9.95721V7.36303C46.9102 5.85205 45.6792 4.62105 44.1682 4.62105H29.3797V2.43537C29.3797 1.29801 28.4544 0.367188 27.317 0.367188H2.16102C1.02457 0.367188 0.09375 1.29801 0.09375 2.43537V44.56C0.09375 45.702 1.02457 46.6328 2.16102 46.6328H27.317C28.4581 46.6328 29.3852 45.6956 29.3797 44.5509H42.1C44.3444 44.5509 46.1712 42.7241 46.1712 40.4751V32.889C46.1712 30.6446 44.3444 28.8132 42.1 28.8132H32.3585L29.3806 26.3815V12.6992H44.1682ZM27.317 45.6478H2.16102C1.56525 45.6478 1.07781 45.1604 1.07781 44.56V2.43537C1.07781 1.83961 1.56525 1.35217 2.16102 1.35217H27.317C27.9128 1.35217 28.3947 1.83961 28.3947 2.43537V4.62105H27.1885V3.05041C27.1885 2.77961 26.9719 2.55838 26.6965 2.55838H19.9476C18.9681 2.6107 19.943 4.12076 18.958 4.16299H10.5154C10.2446 4.16299 10.0234 3.94176 10.0234 3.67096V3.05041C10.0234 2.77961 9.80678 2.55838 9.53139 2.55838H2.77697C2.50617 2.55838 2.28494 2.77961 2.28494 3.05041V42.0788C2.28494 42.3542 2.50617 42.5708 2.77697 42.5708H23.7186C24.4328 43.7669 25.8162 44.5499 27.2041 44.5499C27.2041 44.5499 28.3956 44.5499 28.3956 44.56C28.3956 45.1604 27.9128 45.6478 27.317 45.6478ZM21.6807 12.6946C21.6807 12.6946 20.8582 15.0473 20.849 15.0721C20.5589 15.9038 21.5485 15.6385 21.8882 15.4017C23.0072 14.5287 24.0784 13.5878 25.191 12.6992H26.2054V24.0122C25.9098 24.0462 25.7225 24.3794 25.8263 24.6521L26.2054 25.7398V28.9399C25.1194 29.2281 24.1803 29.979 23.6406 30.9631C22.8172 32.3547 23.2348 33.9584 23.1338 35.4868C23.2009 37.5119 22.8915 39.5902 23.2917 41.5858H3.269V3.54244H9.03844C8.97693 4.40166 9.65072 5.15164 10.5154 5.14705H18.958C19.8264 5.15072 20.502 4.40166 20.4396 3.54244H26.2045V4.62014H21.8872C20.3763 4.62014 19.1453 5.85113 19.1453 7.36211V9.95629C19.1453 11.3993 20.268 12.5863 21.6807 12.6946ZM31.8711 29.688C31.9601 29.7569 32.0675 29.7963 32.1813 29.7963H42.1009C43.8047 29.7963 45.1871 31.1843 45.1871 32.8881V40.4742C45.1871 42.1825 43.8037 43.5659 42.1009 43.5659H27.2041C25.5472 43.5897 24.0895 42.1375 24.1179 40.4742V32.8881C24.1179 31.3624 25.2599 30.0479 26.7864 29.8312C27.1885 29.6853 28.0973 29.9983 28.3819 29.5898C28.4755 29.4622 28.4948 29.2942 28.4461 29.1418L27.3336 25.9767L31.8711 29.688ZM27.2831 28.8114H27.1894V28.5452L27.2831 28.8114ZM27.1894 24.5933V12.6992H28.3956V25.5774L27.1894 24.5933ZM25.0129 11.7142C24.9 11.7142 24.7917 11.7537 24.7027 11.8271L22.3545 13.7475L22.8373 12.3687C22.8869 12.2209 22.8667 12.0538 22.7731 11.9207C22.6051 11.6435 22.1562 11.7234 21.8872 11.7142C20.9179 11.7142 20.1303 10.9266 20.1303 9.95721V7.36303C20.1303 6.39824 20.9179 5.60604 21.8882 5.60604H44.1691C45.1385 5.60604 45.927 6.39824 45.927 7.36303V9.95721C45.927 10.9275 45.1394 11.7142 44.1691 11.7142H25.0129Z" fill="#FF9522"/>
<path d="M42.0997 29.7962H32.1801C32.0672 29.7962 31.9589 29.7568 31.8698 29.6879L27.3314 25.9766L28.444 29.1417C28.5578 29.4547 28.309 29.8063 27.9767 29.7962H27.2038C25.5147 29.8036 24.1075 31.2136 24.1176 32.8879V40.474C24.09 42.1374 25.5468 43.5896 27.2038 43.5658H42.1006C43.8043 43.5658 45.1868 42.1824 45.1868 40.474V32.8879C45.1859 31.1842 43.8025 29.7962 42.0997 29.7962ZM41.9069 37.2097C41.9069 37.8156 41.503 38.3269 40.9568 38.4995C41.2524 39.3266 40.619 40.239 39.7313 40.2914C39.9984 41.1515 39.3063 42.052 38.3773 42.0337H33.2183C32.8346 42.0337 32.4601 41.9153 32.1351 41.7234C31.9478 41.9593 31.6679 42.1071 31.3475 42.1071H29.1076C28.5514 42.1071 28.0988 41.6546 28.0988 41.1029V35.0296C28.0988 34.4733 28.5514 34.0207 29.1076 34.0207H31.3475C31.6917 34.0207 32.002 34.1979 32.1847 34.4687C33.1008 33.8683 33.4469 32.3004 33.8095 31.3375C34.542 29.4226 37.3648 30.425 36.7094 32.3959L36.109 34.0997H39.6239C40.5703 34.0804 41.2652 35.025 40.9577 35.8961C41.5112 36.0696 41.9188 36.5975 41.9069 37.2097Z" fill="#FFE5C2"/>
<path d="M40.9259 37.1863C40.9378 37.3965 40.7735 37.5755 40.5614 37.5755H36.9777C36.3351 37.5801 36.3342 38.5559 36.9777 38.5605H39.6701C40.1685 38.5743 40.174 39.316 39.6205 39.3142H36.9768C36.3305 39.3261 36.3296 40.2863 36.9768 40.2992H38.429C38.944 40.3239 38.9173 41.0556 38.3794 41.0528H33.2204C32.8955 41.0528 32.5806 40.9151 32.3594 40.6737V35.5395C33.1911 35.0521 33.8162 34.2938 34.1412 33.3786L34.7415 31.6657C34.8498 31.3361 35.2647 31.1874 35.564 31.3756C35.7806 31.5087 35.8743 31.8089 35.7806 32.0751L34.9536 34.4333C34.8333 34.7381 35.0876 35.0979 35.4162 35.0879H39.6251C40.1685 35.0796 40.1658 35.8388 39.6692 35.8406H36.9768C36.3305 35.8525 36.3296 36.8136 36.9768 36.8256H39.6692H40.5605C40.7634 36.8228 40.9259 36.9853 40.9259 37.1863Z" fill="#FFD0BB"/>
<path d="M44.1678 5.60547H21.8868C20.9174 5.60547 20.1289 6.39768 20.1289 7.36246V9.95664C20.1289 10.9269 20.9165 11.7136 21.8868 11.7136C22.1558 11.7201 22.6065 11.6448 22.7727 11.9202C22.8663 12.0533 22.8856 12.2204 22.8369 12.3681L22.3541 13.7469L24.7022 11.8265C24.7913 11.7531 24.8987 11.7136 25.0125 11.7136H44.1678C45.1371 11.7136 45.9257 10.926 45.9257 9.95664V7.36338C45.9247 6.39859 45.1371 5.60547 44.1678 5.60547ZM25.7368 8.39242L25.1071 9.00287C25.152 9.48664 25.4412 10.0907 25.063 10.3468C24.6921 10.6341 24.1946 10.1604 23.7687 9.97775C23.3225 10.1687 22.8342 10.6369 22.4743 10.3468C22.0879 10.0953 22.3862 9.45084 22.4247 9.00287C22.1246 8.65771 21.5132 8.31898 21.6766 7.89029C21.7941 7.43957 22.4853 7.52953 22.937 7.42764L23.3262 6.64002C23.4933 6.30496 24.045 6.30496 24.2074 6.64002L24.5967 7.42764L25.4632 7.55064C25.8515 7.59746 26.0287 8.12162 25.7368 8.39242ZM30.3643 8.39242L29.7391 9.00287C29.785 9.49215 30.076 10.0934 29.6896 10.3468C29.3306 10.6369 28.8129 10.1531 28.3998 9.97775C27.9619 10.1641 27.4626 10.6387 27.1055 10.3468C26.719 10.0953 27.0173 9.45084 27.0559 9.00287C26.7447 8.6467 26.148 8.32174 26.3032 7.89029C26.4298 7.43865 27.1055 7.53137 27.5681 7.42764L27.9573 6.64002C28.1198 6.30496 28.6761 6.30496 28.8386 6.64002L29.2278 7.42764L30.0944 7.55064C30.4854 7.59746 30.6608 8.12254 30.3643 8.39242ZM34.9963 8.39242L34.3712 9.00287C34.4097 9.45176 34.709 10.0943 34.3216 10.3468C34.1757 10.456 33.9645 10.4725 33.8048 10.3863L33.0273 9.97775C32.594 10.1632 32.0965 10.6387 31.7375 10.3468C31.5852 10.2385 31.5062 10.0512 31.5402 9.86393L31.688 9.00287C31.385 8.6568 30.7718 8.32082 30.9343 7.89029C31.061 7.43865 31.7366 7.53137 32.1993 7.42764L32.5885 6.64002C32.751 6.30496 33.3027 6.30496 33.4697 6.64002L33.859 7.42764L34.7255 7.55064C35.1157 7.59838 35.2901 8.1207 34.9963 8.39242ZM39.6284 8.39242L39.0033 9.00287C39.0418 9.45176 39.3411 10.0943 38.9537 10.3468C38.8022 10.456 38.5994 10.4725 38.4369 10.3863L37.6594 9.97775C37.2316 10.1604 36.7276 10.6396 36.365 10.3468C35.9868 10.0907 36.276 9.48572 36.321 9.00287C36.018 8.6568 35.4048 8.32082 35.5673 7.89029C35.694 7.43865 36.3696 7.53137 36.8323 7.42764L37.2215 6.64002C37.384 6.30496 37.9357 6.30496 38.1027 6.64002L38.492 7.42764L39.3585 7.55064C39.7468 7.59838 39.9194 8.12346 39.6284 8.39242ZM44.2614 8.39242L43.6317 9.00287C43.673 9.45268 43.9759 10.0925 43.5876 10.3468C43.2195 10.6359 42.7128 10.1568 42.2933 9.97775C41.8655 10.1604 41.3615 10.6396 40.9989 10.3468C40.6106 10.0934 40.9136 9.45176 40.9549 9.00287C40.6519 8.6568 40.0387 8.32082 40.2021 7.89029C40.3288 7.43865 41.0044 7.53137 41.4671 7.42764L41.8508 6.64002C42.0179 6.30496 42.5696 6.30496 42.7366 6.64002L43.1204 7.42764L43.9869 7.55064C44.3761 7.59746 44.5533 8.12162 44.2614 8.39242Z" fill="#F7BC7C"/>
<path d="M31.3754 35.0278L31.3506 41.1222L29.0859 41.1029L29.1107 35.0039H31.3506C31.3653 35.003 31.3754 35.0177 31.3754 35.0278Z" fill="#F7BC7C"/>
<path d="M27.1897 4.62045V3.0498C27.1897 2.779 26.9731 2.55777 26.6977 2.55777H19.9488C18.9693 2.6101 19.9442 4.12016 18.9592 4.16238H10.5167C10.2459 4.16238 10.0246 3.94115 10.0246 3.67035V3.0498C10.0246 2.779 9.80801 2.55777 9.53262 2.55777H2.77728C2.50648 2.55777 2.28525 2.779 2.28525 3.0498V42.0782C2.28525 42.3536 2.50648 42.5702 2.77728 42.5702H23.7189C24.4331 43.7663 25.8165 44.5493 27.2044 44.5493C27.2044 44.5493 28.396 44.5493 28.396 44.5594C28.396 45.1598 27.9131 45.6472 27.3183 45.6472H2.16133C1.56557 45.6472 1.07812 45.1598 1.07812 44.5594V2.43477C1.07812 1.839 1.56557 1.35156 2.16133 1.35156H27.3173C27.9131 1.35156 28.395 1.839 28.395 2.43477V4.62045H27.1897Z" fill="#FF9522"/>
<path d="M28.3937 12.6992V25.5774L27.1875 24.5933V12.6992H28.3937Z" fill="#FF9422"/>
<path d="M21.8878 4.62158H26.205V3.54297H20.4401C20.5016 4.40311 19.8279 5.15217 18.9585 5.14758H10.516C9.65217 5.15125 8.97746 4.40219 9.03897 3.54297H3.26953V41.5863H23.2904C22.8911 39.5898 23.1996 37.5124 23.1325 35.4874C23.2344 33.9589 22.8168 32.3553 23.6393 30.9636C24.179 29.9795 25.1181 29.2287 26.2041 28.9404V25.7404L25.8249 24.6526C25.7203 24.3799 25.9085 24.0467 26.2041 24.0128V12.6997H25.1897C24.0771 13.5883 23.0049 14.5292 21.8869 15.4022C21.5472 15.6381 20.5576 15.9043 20.8477 15.0727C20.8578 15.0479 21.6794 12.6951 21.6794 12.6951C20.2666 12.5868 19.144 11.4008 19.144 9.95774V7.36355C19.1458 5.85166 20.3768 4.62158 21.8878 4.62158ZM24.2855 23.5005C24.2855 26.1691 23.1683 28.7036 21.214 30.5111V30.5212C21.0671 30.6488 20.5237 31.1187 20.3676 31.2546L20.3575 31.2151C17.1254 33.6432 12.3492 33.6413 9.11883 31.2151L9.10873 31.2546C8.949 31.116 8.41199 30.6515 8.26236 30.5212L8.26695 30.5111C1.92012 24.6728 6.1033 13.9527 14.7405 13.9601C20.0023 13.9601 24.2855 18.2378 24.2855 23.5005Z" fill="#F7EBDD"/>
<path d="M15.0823 28.9242C15.0603 29.3804 14.4048 29.3795 14.3828 28.9242C14.4048 28.468 15.0603 28.468 15.0823 28.9242Z" fill="#FF9522"/>
<path d="M15.0823 30.7953C15.0603 31.2515 14.4048 31.2506 14.3828 30.7953C14.4048 30.3391 15.0603 30.3391 15.0823 30.7953Z" fill="#FF9522"/>
<path d="M14.7383 13.9609C6.09838 13.9536 1.91979 24.6764 8.26479 30.5119L8.2602 30.522C8.40708 30.6496 8.95051 31.1196 9.10657 31.2555L9.11667 31.216C12.347 33.6422 17.1232 33.644 20.3554 31.216L20.3655 31.2555C20.5252 31.1169 21.0622 30.6524 21.2118 30.522V30.5119C27.5614 24.6727 23.3709 13.9536 14.7383 13.9609ZM14.7383 32.0624C12.7739 32.0624 10.8691 31.3877 9.34799 30.1576L10.165 26.4306C10.2384 26.0956 10.4798 25.8248 10.8002 25.7018L12.0257 25.2584L13.8029 27.6111C14.0324 27.9352 14.5758 27.8324 14.6695 27.4532L14.7383 27.2173L14.8072 27.4532C14.9081 27.8324 15.447 27.9352 15.6737 27.6111L17.4463 25.2584L18.6672 25.7018C18.9922 25.8248 19.2336 26.0956 19.307 26.4352L20.124 30.1567C18.603 31.3877 16.7028 32.0624 14.7383 32.0624ZM13.2613 20.2619C13.4082 20.0452 13.5844 19.8304 13.8763 19.8387H15.491C15.8591 19.8497 16.1153 20.1747 16.3181 20.4932C16.9185 21.6168 15.9509 22.8533 14.9347 23.2792C14.8411 23.3582 14.6346 23.3582 14.5602 23.2939C13.4155 22.7753 12.4764 21.4874 13.2613 20.2619ZM12.7693 19.3118C12.5948 19.4926 12.4223 19.7249 12.302 19.9516C11.9569 18.9014 12.5407 18.1037 13.4541 18.0514C13.5624 18.0413 13.6661 17.9927 13.7441 17.9137C15.5874 16.176 17.83 17.5318 17.1406 19.947C16.7734 19.3733 16.2135 18.8427 15.491 18.8537C14.6291 18.9134 13.3953 18.6178 12.7693 19.3118ZM16.3484 25.0812L15.4819 26.2333L15.3194 25.6816L16.3484 25.0812ZM14.7383 24.8802C14.5364 24.7627 14.0278 24.4662 13.8323 24.3533L13.8818 24.0329C14.3895 24.412 15.0789 24.4102 15.5902 24.0375L15.6342 24.3579L14.7383 24.8802ZM13.1924 25.1161C13.4173 25.2464 13.9287 25.5475 14.1572 25.6825L13.9993 26.2342L13.1282 25.0821L13.1924 25.1161ZM20.9612 29.3791L20.2672 26.2232C20.124 25.554 19.6522 25.017 19.0069 24.7755L17.4959 24.2293C17.2132 24.1173 16.8891 23.9815 16.5807 24.0026L16.4916 23.4114C17.0433 22.8799 17.3876 22.1758 17.4766 21.4029C19.8138 18.2139 16.5137 14.2731 13.1787 17.0958C11.0738 17.407 10.6616 19.7845 12.0073 21.4084C12.0863 22.1621 12.4305 22.8652 12.9822 23.4068L12.8932 24.0026C12.5306 23.9328 10.8268 24.6773 10.4615 24.7755C9.82166 25.017 9.34891 25.5586 9.20663 26.2232L8.51264 29.3791C3.38395 24.0182 7.30092 14.8964 14.7401 14.945C22.1794 14.8973 26.0963 24.021 20.9612 29.3791Z" fill="#FF9522"/>
<path d="M17.1431 19.9471C16.7759 19.3734 16.2159 18.8428 15.4935 18.8538H13.8788C13.1609 18.8354 12.6166 19.3532 12.3035 19.9517C11.9584 18.9015 12.5422 18.1038 13.4556 18.0515C13.5639 18.0414 13.6676 17.9927 13.7457 17.9138C15.5899 16.1761 17.8325 17.5319 17.1431 19.9471Z" fill="#DB7E19"/>
<path d="M15.634 24.3571L14.7381 24.8785C14.5361 24.761 14.0276 24.4645 13.832 24.3516L13.8816 24.0312C14.3892 24.4104 15.0786 24.4085 15.5899 24.0358L15.634 24.3571Z" fill="#FFD0BB"/>
<path d="M16.513 21.1413C16.5002 22.129 15.7943 22.8928 14.9378 23.2774C14.8442 23.3563 14.6376 23.3563 14.5633 23.2921C13.7077 22.8992 12.9688 22.1097 12.9688 21.1505C12.9853 20.7631 13.2836 19.8378 13.8794 19.8359H15.4941C16.0696 19.8883 16.468 20.5905 16.513 21.1413Z" fill="#FFD0BB"/>
<path d="M19.3067 26.4346C19.2333 26.095 18.9918 25.8242 18.6669 25.7012L17.446 25.2578L15.6734 27.6106C15.4466 27.9355 14.9078 27.8318 14.8068 27.4527L14.738 27.2168L14.6691 27.4527C14.5755 27.8318 14.0321 27.9337 13.8026 27.6106L12.0254 25.2578L10.7999 25.7012C10.4795 25.8242 10.239 26.095 10.1646 26.4301L9.34766 30.157C12.3724 32.6796 17.0999 32.6814 20.1237 30.157L19.3067 26.4346ZM14.7334 31.1457C14.2771 31.1236 14.2781 30.4682 14.7334 30.4462C15.1887 30.4691 15.1887 31.1245 14.7334 31.1457ZM14.7334 29.2758C14.2771 29.2537 14.2781 28.5983 14.7334 28.5763C15.1887 28.5983 15.1887 29.2537 14.7334 29.2758Z" fill="#FFBD77"/>
<path d="M23.3008 23.5019C23.3008 25.6977 22.4544 27.7943 20.9627 29.3796L20.2687 26.2237C20.1255 25.5545 19.6537 25.0175 19.0084 24.776L17.4974 24.2298C17.2146 24.1179 16.8906 23.982 16.5822 24.0031L16.4931 23.4119C17.0448 22.8804 17.3891 22.1763 17.4781 21.4034C19.8152 18.2144 16.5152 14.2736 13.1802 17.0963C11.0753 17.4075 10.6631 19.785 12.0088 21.4089C12.0878 22.1626 12.432 22.8657 12.9837 23.4073L12.8947 24.0031C12.5321 23.9333 10.8283 24.6778 10.463 24.776C9.82316 25.0175 9.3504 25.5591 9.20812 26.2237L8.51413 29.3796C3.38544 24.0178 7.30242 14.8969 14.7416 14.9455C19.4609 14.9455 23.3008 18.7808 23.3008 23.5019Z" fill="#F7BC7C"/>
</g>
<defs>
<clipPath id="clip0_3260_391">
<rect width="47" height="47" fill="white"/>
</clipPath>
</defs>
</svg>
