<svg width="37" height="34" viewBox="0 0 37 34" fill="none" xmlns="http://www.w3.org/2000/svg">
<g clip-path="url(#clip0_3260_253)">
<path d="M1.125 3.09186V28.6434C1.125 29.7767 2.13409 30.704 3.36742 30.704H3.59167V8.19186L8.91742 3.29792H22.6523V3.09186C22.6523 1.95852 21.6432 1.03125 20.4098 1.03125H3.36742C2.13409 1.03125 1.125 1.95852 1.125 3.09186Z" fill="#FFD8AE"/>
<path d="M3.58977 31.2187H3.36553C1.79583 31.2187 0.5625 30.0853 0.5625 28.6429V3.09138C0.5625 1.64896 1.79583 0.515625 3.36553 0.515625H20.408C21.9777 0.515625 23.211 1.64896 23.211 3.09138V3.29744C23.211 3.60653 22.9867 3.81259 22.6504 3.81259H9.08371L4.09432 8.39744V30.7035C4.15038 31.0126 3.87008 31.2187 3.58977 31.2187ZM3.36553 1.54593C2.4125 1.54593 1.68371 2.21562 1.68371 3.09138V28.6429C1.68371 29.3641 2.24432 30.0338 3.02917 30.1368V8.13987C3.02917 7.98532 3.08523 7.88229 3.19735 7.77926L8.52311 2.88532C8.63523 2.78229 8.74735 2.73078 8.91553 2.73078H22.0898C21.8655 2.06108 21.1928 1.54593 20.408 1.54593H3.36553Z" fill="#FF9422"/>
<path d="M25.1151 17.5146C24.7787 17.5146 24.5544 17.3085 24.5544 16.9994V5.35701C24.5544 4.48125 23.8257 3.81155 22.8726 3.81155H8.85748C8.52112 3.81155 8.29688 3.60549 8.29688 3.2964C8.29688 2.98731 8.52112 2.78125 8.85748 2.78125H22.8166C24.3863 2.78125 25.6196 3.91458 25.6196 5.35701V16.9994C25.6757 17.3085 25.3954 17.5146 25.1151 17.5146Z" fill="#FF9422"/>
<path d="M22.8728 33.4849H5.83037C4.26068 33.4849 3.02734 32.3515 3.02734 30.9091V8.19093C3.02734 7.88184 3.25159 7.67578 3.58795 7.67578C3.92431 7.67578 4.14856 7.88184 4.14856 8.19093V30.9091C4.14856 31.7849 4.87734 32.4546 5.83037 32.4546H22.8728C23.8258 32.4546 24.5546 31.7849 24.5546 30.9091C24.5546 30.6 24.7789 30.394 25.1152 30.394C25.4516 30.394 25.6758 30.6 25.6758 30.9091C25.6758 32.3515 24.3864 33.4849 22.8728 33.4849Z" fill="#FF9422"/>
<path d="M3.58984 8.19081L8.9156 3.29688V6.69688C8.9156 7.52112 8.18681 8.1393 7.34591 8.1393H3.58984V8.19081Z" fill="#FFD8AE"/>
<path d="M7.28886 8.70758H3.58886C3.36461 8.70758 3.14037 8.60455 3.08431 8.39849C3.02825 8.19243 3.02825 7.98637 3.19643 7.83182L8.52219 2.93788C8.69037 2.78334 8.91461 2.73182 9.13886 2.83485C9.3631 2.93788 9.47522 3.09243 9.47522 3.29849V6.69849C9.41916 7.78031 8.46613 8.70758 7.28886 8.70758ZM4.93431 7.67728H7.28886C7.84946 7.67728 8.29795 7.26516 8.29795 6.75V4.53485L4.93431 7.67728Z" fill="#FF9422"/>
<path d="M31.5634 11.4871C31.171 11.4871 30.8346 11.4356 30.4422 11.3841C30.1619 11.3326 29.9937 11.075 29.9937 10.8174C30.0498 10.6113 29.9377 10.4568 29.8816 10.4568C29.8255 10.4568 29.6574 10.4568 29.5452 10.6629C29.3771 10.8689 29.0407 10.9204 28.8164 10.7659C28.2558 10.4053 27.7513 9.94164 27.4149 9.42649C27.2468 9.22043 27.3028 8.91134 27.5271 8.7568C27.6952 8.60225 27.7513 8.49922 27.7513 8.44771C27.7513 8.39619 27.5831 8.34468 27.3589 8.34468C27.0786 8.34468 26.7983 8.19013 26.7422 7.93255C26.6301 7.31437 26.6301 6.64467 26.7983 6.02649C26.8543 5.76892 27.1346 5.61437 27.4149 5.61437C27.6392 5.61437 27.8074 5.56286 27.8074 5.51134C27.8074 5.45983 27.8074 5.30528 27.5831 5.20225C27.3589 5.04771 27.3028 4.73861 27.471 4.53255C27.8634 4.0174 28.368 3.55377 28.9286 3.24468C29.1528 3.09013 29.4892 3.14164 29.6574 3.34771C29.8255 3.50225 29.9377 3.55377 29.9937 3.55377C30.0498 3.55377 30.1058 3.39922 30.1058 3.19316C30.1058 2.93558 30.274 2.67801 30.5543 2.62649C31.2271 2.52346 31.9558 2.52346 32.6286 2.67801C32.9089 2.72952 33.0771 2.9871 33.0771 3.24468C33.0771 3.45074 33.1331 3.60528 33.1892 3.60528C33.2452 3.60528 33.4134 3.60528 33.5255 3.39922C33.6937 3.19316 34.0301 3.14164 34.2543 3.29619C34.8149 3.6568 35.3195 4.12043 35.6558 4.63558C35.824 4.84164 35.768 5.15074 35.5437 5.30528C35.3755 5.45983 35.3195 5.56286 35.3195 5.61437C35.3195 5.66589 35.4877 5.7174 35.7119 5.7174C35.9922 5.7174 36.2725 5.87195 36.3286 6.12952C36.4407 6.7477 36.4407 7.4174 36.2725 8.03558C36.2164 8.29316 35.9361 8.44771 35.6558 8.44771C35.4316 8.44771 35.2634 8.49922 35.2634 8.55074C35.2634 8.60225 35.3195 8.7568 35.4877 8.85983C35.7119 9.01437 35.768 9.32346 35.5998 9.52952C35.2074 10.0447 34.7028 10.5083 34.1422 10.8174C33.918 10.9719 33.5816 10.9204 33.4134 10.7144C33.2452 10.5598 33.1331 10.5083 33.0771 10.5083C33.021 10.5083 32.9649 10.6629 32.9649 10.8689C32.9649 11.1265 32.7968 11.3841 32.5164 11.4356C32.1801 11.4356 31.8437 11.4871 31.5634 11.4871ZM31.1149 10.4053C31.3392 10.4568 31.6195 10.4568 31.8437 10.4053C31.9558 9.99316 32.2361 9.63255 32.6286 9.47801C33.021 9.32346 33.4695 9.42649 33.8619 9.63255C34.0861 9.47801 34.2543 9.32346 34.4225 9.16892C34.1422 8.80831 34.0861 8.39619 34.2543 8.03558C34.4225 7.67498 34.8149 7.4174 35.2634 7.36589C35.3195 7.15983 35.3195 6.90225 35.2634 6.69619C34.8149 6.59316 34.4225 6.33558 34.2543 5.97498C34.0861 5.61437 34.1983 5.20225 34.4225 4.84164C34.2543 4.6871 34.0861 4.48104 33.918 4.32649C33.5255 4.58407 33.0771 4.63558 32.6846 4.48104C32.2922 4.32649 32.0119 3.96589 31.9558 3.55377C31.7316 3.50225 31.4513 3.50225 31.2271 3.55377C31.1149 3.96589 30.8346 4.32649 30.4422 4.48104C30.0498 4.63558 29.6013 4.53255 29.2089 4.32649C29.0407 4.48104 28.8164 4.63558 28.6483 4.79013C28.9286 5.15074 28.9846 5.56286 28.8164 5.92346C28.6483 6.28407 28.2558 6.54164 27.8074 6.59316C27.7513 6.79922 27.7513 7.0568 27.8074 7.26286C28.2558 7.36589 28.6483 7.62346 28.8164 7.98407C28.9846 8.34468 28.8725 8.7568 28.6483 9.1174C28.8164 9.27195 28.9846 9.47801 29.1528 9.63255C29.5452 9.37498 29.9937 9.32346 30.4422 9.47801C30.7786 9.63255 31.0028 9.99316 31.1149 10.4053Z" fill="#FF9422"/>
<path d="M31.5635 8.60166C32.5542 8.60166 33.3574 7.86361 33.3574 6.95317C33.3574 6.04274 32.5542 5.30469 31.5635 5.30469C30.5727 5.30469 29.7695 6.04274 29.7695 6.95317C29.7695 7.86361 30.5727 8.60166 31.5635 8.60166Z" fill="#FFD8AE"/>
<path d="M27.9758 31.786C27.303 31.786 26.6303 31.7345 25.9576 31.5799C23.7712 31.0648 21.9212 29.8284 20.7439 28.0769C19.5667 26.3254 19.2303 24.2133 19.7349 22.2042C20.2955 20.1951 21.6409 18.4951 23.547 17.4133C25.453 16.3314 27.7515 16.0223 29.9379 16.486C32.1243 17.0011 33.9743 18.2375 35.1515 19.989C36.3288 21.7405 36.6652 23.8526 36.1606 25.8617C35.6 27.8708 34.2546 29.5708 32.3485 30.6526C31.0591 31.3739 29.5455 31.786 27.9758 31.786ZM27.9758 17.2072C26.6303 17.2072 25.3409 17.5678 24.1636 18.186C22.4818 19.1133 21.3046 20.6072 20.8561 22.3587C20.4076 24.1102 20.6879 25.9133 21.697 27.4587C22.7061 29.0042 24.3318 30.086 26.2379 30.4981C28.1439 30.9102 30.1061 30.6526 31.7879 29.7254C33.4697 28.7981 34.647 27.3042 35.0955 25.5526C35.5439 23.8011 35.2636 21.9981 34.2546 20.4526C33.2455 18.9072 31.6197 17.8254 29.7136 17.4133C29.153 17.3102 28.5364 17.2072 27.9758 17.2072Z" fill="#FF9422"/>
<path d="M30.6395 28.0171C33.0721 26.656 33.8434 23.7405 32.3622 21.5052C30.881 19.2699 27.7082 18.5611 25.2757 19.9222C22.8431 21.2833 22.0718 24.1988 23.553 26.4342C25.0342 28.6695 28.207 29.3782 30.6395 28.0171Z" fill="#FFD8AE"/>
<path d="M27.9741 29.2111C27.5256 29.2111 27.0771 29.1596 26.6287 29.0566C23.5453 28.3869 21.6953 25.502 22.4241 22.7202C23.1529 19.8869 26.2923 18.1869 29.3196 18.8566C30.7771 19.1657 32.0665 20.0414 32.8514 21.2263C33.6362 22.4111 33.8605 23.8536 33.5241 25.1929C33.1878 26.5323 32.2347 27.7172 30.9453 28.4384C30.0484 28.9536 29.0393 29.2111 27.9741 29.2111ZM27.9741 19.7323C25.8999 19.7323 23.9938 21.0202 23.4893 22.9778C22.8726 25.2445 24.3862 27.5111 26.8529 28.0778C28.0302 28.3354 29.2635 28.1808 30.3287 27.5626C31.3938 26.996 32.1226 26.0687 32.4029 24.9354C32.6832 23.8536 32.515 22.7202 31.8423 21.7414C31.2256 20.7626 30.2165 20.0929 28.9832 19.8354C28.7029 19.7839 28.3665 19.7323 27.9741 19.7323Z" fill="#FF9422"/>
<path d="M27.417 26.1183C28.7064 26.4274 29.9958 25.6546 30.3322 24.4698C30.6685 23.2849 29.8276 22.1001 28.5382 21.791C27.2488 21.4819 25.9594 22.2546 25.6231 23.4395C25.3428 24.6243 26.1276 25.8607 27.417 26.1183Z" fill="white"/>
<path d="M33.4674 14.9932L35.2053 14.8387L33.8598 17.0023L32.1219 17.2084L31.4492 15.7659L32.7947 13.5508L33.4674 14.9932Z" fill="#FFD8AE"/>
<path d="M32.123 17.723C31.8988 17.723 31.7306 17.62 31.6185 17.4139L30.8897 15.9715C30.8336 15.817 30.8336 15.6624 30.8897 15.5079L32.2352 13.2927C32.3473 13.1382 32.5155 13.0352 32.7397 13.0352C32.9639 13.0352 33.1321 13.1382 33.2442 13.3442L33.8049 14.4776L35.0942 14.323C35.3185 14.323 35.4867 14.3746 35.6549 14.5291C35.823 14.6836 35.767 14.8897 35.6549 15.0442L34.3094 17.2594C34.1973 17.4139 34.0852 17.517 33.917 17.517L32.1791 17.723C32.1791 17.723 32.1791 17.723 32.123 17.723ZM32.067 15.7655L32.5155 16.6412L33.5246 16.5382L34.1973 15.4564L33.5806 15.5079C33.3564 15.5594 33.0761 15.4049 33.02 15.1988L32.7397 14.6836L32.067 15.7655Z" fill="#FF9422"/>
<path d="M27.9742 24.4718C27.8621 24.4718 27.806 24.4718 27.6939 24.4202C27.4136 24.2657 27.3015 23.9566 27.4696 23.699L31.6181 16.9505C31.7863 16.693 32.1227 16.5899 32.403 16.7445C32.6833 16.899 32.7954 17.2081 32.6272 17.4657L28.4787 24.2142C28.3666 24.4202 28.1984 24.4718 27.9742 24.4718Z" fill="#FF9422"/>
<path d="M16.5402 16.2797C16.0918 16.2797 15.6433 16.2282 15.1387 16.1251C14.8584 16.0736 14.6902 15.816 14.6902 15.5585C14.7463 15.2494 14.6342 14.9918 14.466 14.9403C14.2978 14.8888 14.0175 14.9918 13.8493 15.1979C13.6812 15.4039 13.3448 15.4554 13.1205 15.3009C12.3918 14.8372 11.8312 14.2706 11.3827 13.6009C11.2145 13.3948 11.2705 13.0857 11.4948 12.9312C11.719 12.7251 11.8872 12.5191 11.8312 12.3645C11.7751 12.21 11.4948 12.1069 11.1584 12.1585C10.8781 12.1585 10.5978 12.0039 10.5418 11.7463C10.3736 10.9736 10.3736 10.2009 10.5978 9.42815C10.6539 9.17058 10.9342 9.01603 11.2145 9.01603C11.5508 9.06755 11.8312 8.96452 11.8872 8.80997C11.9433 8.65543 11.8312 8.39785 11.6069 8.24331C11.3827 8.08876 11.3266 7.77967 11.4948 7.57361C11.9993 6.90391 12.616 6.38876 13.3448 5.97664C13.569 5.82209 13.9054 5.87361 14.0736 6.07967C14.2978 6.28573 14.5221 6.44028 14.6902 6.38876C14.8584 6.33724 14.9705 6.07967 14.9145 5.77058C14.9145 5.513 15.0827 5.25543 15.363 5.20391C16.2039 5.04937 17.0448 5.04937 17.8857 5.25543C18.166 5.30694 18.3342 5.56452 18.3342 5.82209C18.2781 6.13118 18.3902 6.38876 18.5584 6.44028C18.7266 6.49179 19.0069 6.38876 19.1751 6.1827C19.3433 5.97664 19.6796 5.92512 19.9039 6.07967C20.6327 6.54331 21.1933 7.10997 21.6418 7.77967C21.8099 7.98573 21.7539 8.29482 21.5296 8.44937C21.3054 8.65543 21.1372 8.86149 21.1933 9.01603C21.2493 9.17058 21.5296 9.27361 21.866 9.22209C22.1463 9.22209 22.4266 9.37664 22.4827 9.63422C22.6508 10.4069 22.6508 11.1797 22.4266 11.9524C22.3705 12.21 22.0902 12.3645 21.8099 12.3645C21.4736 12.313 21.1933 12.416 21.1372 12.5706C21.0812 12.7251 21.1933 12.9827 21.4175 13.1372C21.6418 13.2918 21.6978 13.6009 21.5296 13.8069C21.0251 14.4766 20.4084 14.9918 19.6796 15.4039C19.4554 15.5585 19.119 15.5069 18.9508 15.3009C18.7266 15.0948 18.5024 14.9403 18.3342 14.9918C18.166 15.0433 18.0539 15.3009 18.1099 15.61C18.1099 15.8675 17.9418 16.1251 17.6615 16.1766C17.3251 16.2797 16.9327 16.2797 16.5402 16.2797ZM15.8675 15.1979C16.2599 15.2494 16.6524 15.2494 17.1008 15.1979C17.213 14.6312 17.5493 14.2191 18.0539 14.013C18.5584 13.8585 19.119 13.9615 19.5675 14.2706C19.9039 14.0645 20.1842 13.8069 20.4645 13.4979C20.1281 13.0342 20.016 12.5191 20.2402 12.0554C20.4645 11.5918 20.913 11.3342 21.5296 11.2312C21.5857 10.8706 21.5857 10.51 21.5296 10.0979C20.913 9.99482 20.4645 9.68573 20.2402 9.22209C20.016 8.75846 20.1842 8.24331 20.5205 7.83118C20.2963 7.52209 20.016 7.26452 19.6796 7.00694C19.1751 7.31603 18.6145 7.41906 18.1099 7.213C17.6054 7.00694 17.3251 6.59482 17.213 6.02815C16.8205 5.97664 16.4281 5.97664 15.9796 6.02815C15.8675 6.59482 15.5312 7.00694 15.0266 7.213C14.5221 7.36755 13.9615 7.26452 13.513 6.95543C13.1766 7.16149 12.8963 7.41906 12.616 7.72815C12.9524 8.19179 13.0645 8.70694 12.8402 9.17058C12.616 9.63421 12.1675 9.89179 11.5508 9.99482C11.4948 10.3554 11.4948 10.716 11.5508 11.1282C12.1675 11.2312 12.616 11.5403 12.8402 12.0039C13.0084 12.4675 12.8963 12.9827 12.5599 13.3948C12.7842 13.7039 13.0645 13.9615 13.4008 14.2191C13.9054 13.91 14.466 13.8069 14.9705 14.013C15.4751 14.2191 15.7554 14.6827 15.8675 15.1979Z" fill="#FF9422"/>
<path d="M14.2969 10.7169C14.2969 11.8502 15.306 12.7775 16.5393 12.7775C17.7726 12.7775 18.7817 11.8502 18.7817 10.7169C18.7817 9.58352 17.7726 8.65625 16.5393 8.65625C15.306 8.65625 14.2969 9.58352 14.2969 10.7169Z" fill="#FFD8AE"/>
<path d="M8.24242 12.417H6.56061C6.22424 12.417 6 12.211 6 11.9019C6 11.5928 6.22424 11.3867 6.56061 11.3867H8.24242C8.57879 11.3867 8.80303 11.5928 8.80303 11.9019C8.80303 12.211 8.57879 12.417 8.24242 12.417Z" fill="#FF9422"/>
<path d="M9.47576 15.2491H6.56061C6.22424 15.2491 6 15.043 6 14.7339C6 14.4248 6.22424 14.2188 6.56061 14.2188H9.47576C9.81212 14.2188 10.0364 14.4248 10.0364 14.7339C10.0364 15.043 9.81212 15.2491 9.47576 15.2491Z" fill="#FF9422"/>
<path d="M8.97036 21.2781H7.12036C6.84006 21.2781 6.67188 21.0721 6.67188 20.866V19.166C6.67188 18.9085 6.89612 18.7539 7.12036 18.7539H8.97036C9.25066 18.7539 9.41884 18.96 9.41884 19.166V20.866C9.41884 21.0721 9.1946 21.2781 8.97036 21.2781Z" fill="#FFD8AE"/>
<path d="M9.41832 26.4811H6.61529C6.27893 26.4811 6.05469 26.275 6.05469 25.9659V23.3902C6.05469 23.0811 6.27893 22.875 6.61529 22.875H9.41832C9.75469 22.875 9.97893 23.0811 9.97893 23.3902V25.9659C9.97893 26.2235 9.75469 26.4811 9.41832 26.4811ZM7.1759 25.4508H8.85772V23.9053H7.1759V25.4508Z" fill="#FF9422"/>
<path d="M8.97036 30.6024H7.12036C6.84006 30.6024 6.67188 30.3963 6.67188 30.1902V28.4902C6.67188 28.2327 6.89612 28.0781 7.12036 28.0781H8.97036C9.25066 28.0781 9.41884 28.2842 9.41884 28.4902V30.1902C9.41884 30.4478 9.1946 30.6024 8.97036 30.6024Z" fill="#FFD8AE"/>
<path d="M17.6596 19.3194H12.502C12.1656 19.3194 11.9414 19.1133 11.9414 18.8042C11.9414 18.4951 12.1656 18.2891 12.502 18.2891H17.6596C17.996 18.2891 18.2202 18.4951 18.2202 18.8042C18.2202 19.1133 17.9399 19.3194 17.6596 19.3194Z" fill="#FF9422"/>
<path d="M17.5475 21.6358H12.502C12.1656 21.6358 11.9414 21.4297 11.9414 21.1206C11.9414 20.8115 12.1656 20.6055 12.502 20.6055H17.5475C17.8838 20.6055 18.1081 20.8115 18.1081 21.1206C18.1081 21.4297 17.8278 21.6358 17.5475 21.6358Z" fill="#FF9422"/>
<path d="M17.099 24.0069H12.502C12.1656 24.0069 11.9414 23.8008 11.9414 23.4917C11.9414 23.1826 12.1656 22.9766 12.502 22.9766H17.099C17.4353 22.9766 17.6596 23.1826 17.6596 23.4917C17.6596 23.8008 17.3793 24.0069 17.099 24.0069Z" fill="#FF9422"/>
<path d="M17.2658 26.3233H12.5567C12.2203 26.3233 11.9961 26.1172 11.9961 25.8081C11.9961 25.499 12.2203 25.293 12.5567 25.293H17.2658C17.6022 25.293 17.8264 25.499 17.8264 25.8081C17.8264 26.1172 17.5461 26.3233 17.2658 26.3233Z" fill="#FF9422"/>
<path d="M17.6596 28.6944H12.502C12.1656 28.6944 11.9414 28.4883 11.9414 28.1792C11.9414 27.8701 12.1656 27.6641 12.502 27.6641H17.6596C17.996 27.6641 18.2202 27.8701 18.2202 28.1792C18.2202 28.4883 17.9399 28.6944 17.6596 28.6944Z" fill="#FF9422"/>
<path d="M19.5096 31.0108H12.502C12.1656 31.0108 11.9414 30.8047 11.9414 30.4956C11.9414 30.1865 12.1656 29.9805 12.502 29.9805H19.4535C19.7899 29.9805 20.0141 30.1865 20.0141 30.4956C20.0141 30.8047 19.7899 31.0108 19.5096 31.0108Z" fill="#FF9422"/>
</g>
<defs>
<clipPath id="clip0_3260_253">
<rect width="37" height="34" fill="white"/>
</clipPath>
</defs>
</svg>
