<svg width="50" height="50" viewBox="0 0 50 50" fill="none" xmlns="http://www.w3.org/2000/svg">
<path fill-rule="evenodd" clip-rule="evenodd" d="M35.3646 49.1215H7.57959C6.83672 49.1215 6.23047 48.5154 6.23047 47.7724V18.8666C6.23047 18.495 6.36289 18.1753 6.62559 17.9126L12.8304 11.7077C13.0931 11.445 13.4128 11.3125 13.7844 11.3125H35.3645C36.1075 11.3125 36.7136 11.9188 36.7136 12.6616V47.7723C36.7137 48.5151 36.107 49.1215 35.3646 49.1215Z" fill="#FFCD97"/>
<path fill-rule="evenodd" clip-rule="evenodd" d="M35.3647 49.1217H7.57959C6.83682 49.1217 6.23047 48.5156 6.23047 47.7725H34.0158C34.7584 47.7725 35.365 47.1661 35.365 46.4233L35.3648 11.3125C36.1079 11.3125 36.714 11.9188 36.714 12.6616V47.7725C36.7139 48.5153 36.1072 49.1217 35.3647 49.1217Z" fill="#FE9321"/>
<path fill-rule="evenodd" clip-rule="evenodd" d="M32.3256 46.0825H4.54053C3.79775 46.0825 3.19141 45.4765 3.19141 44.7334V15.8274C3.19141 15.4559 3.32383 15.1361 3.58662 14.8734L9.79141 8.66855C10.0541 8.40586 10.3738 8.27344 10.7454 8.27344H32.3257C33.0688 8.27344 33.6748 8.87979 33.6748 9.62256V44.7334C33.6748 45.4762 33.0682 46.0825 32.3256 46.0825Z" fill="#F7E7D5"/>
<path fill-rule="evenodd" clip-rule="evenodd" d="M32.3256 46.0826H4.54053C3.79775 46.0826 3.19141 45.4766 3.19141 44.7335V44.056H30.299C31.0416 44.056 31.6481 43.4496 31.6481 42.7068V8.27344H32.3257C33.0688 8.27344 33.6748 8.87979 33.6748 9.62256V44.7334C33.6748 45.4763 33.0682 46.0826 32.3256 46.0826Z" fill="#FFC700"/>
<path fill-rule="evenodd" clip-rule="evenodd" d="M7.70098 10.7577L9.79004 8.66855C10.0527 8.40586 10.3725 8.27344 10.744 8.27344H11.1985V14.0505C11.1985 14.7215 10.6512 15.2687 9.98037 15.2687H4.32031C4.38574 15.1254 4.49648 15.009 4.59854 14.8734L7.70098 10.7577Z" fill="#FFC700"/>
<path fill-rule="evenodd" clip-rule="evenodd" d="M8.16621 36.4721H12.9417C13.1771 36.4721 13.3696 36.6647 13.3696 36.9V41.6755C13.3696 41.9108 13.1771 42.1034 12.9417 42.1034H8.16621C7.93086 42.1034 7.73828 41.9108 7.73828 41.6755V36.9C7.73828 36.6647 7.93086 36.4721 8.16621 36.4721ZM8.16621 12.2539H12.9417C13.1771 12.2539 13.3696 12.4465 13.3696 12.6818V17.4573C13.3696 17.6927 13.1771 17.8853 12.9417 17.8853H8.16621C7.93086 17.8853 7.73828 17.6927 7.73828 17.4573V12.6818C7.73828 12.4464 7.93086 12.2539 8.16621 12.2539ZM8.16621 20.3266H12.9417C13.1771 20.3266 13.3696 20.5191 13.3696 20.7545V25.53C13.3696 25.7654 13.1771 25.9579 12.9417 25.9579H8.16621C7.93086 25.9579 7.73828 25.7653 7.73828 25.53V20.7545C7.73828 20.5191 7.93086 20.3266 8.16621 20.3266ZM8.16621 28.3993H12.9417C13.1771 28.3993 13.3696 28.5919 13.3696 28.8272V33.6027C13.3696 33.8381 13.1771 34.0307 12.9417 34.0307H8.16621C7.93086 34.0307 7.73828 33.8381 7.73828 33.6027V28.8272C7.73828 28.5919 7.93086 28.3993 8.16621 28.3993Z" fill="#FBF1E5"/>
<path fill-rule="evenodd" clip-rule="evenodd" d="M8.16621 36.4721H12.9417C13.1771 36.4721 13.3696 36.6646 13.3696 36.9V37.4854H9.17959C8.94424 37.4854 8.75166 37.678 8.75166 37.9134V42.1035H8.16621C7.93086 42.1035 7.73828 41.9109 7.73828 41.6756V36.9001C7.73828 36.6646 7.93086 36.4721 8.16621 36.4721ZM8.16621 12.2539H12.9417C13.1771 12.2539 13.3696 12.4465 13.3696 12.6818V13.2672H9.17959C8.94424 13.2672 8.75166 13.4598 8.75166 13.6951V17.8853H8.16621C7.93086 17.8853 7.73828 17.6927 7.73828 17.4573V12.6818C7.73828 12.4464 7.93086 12.2539 8.16621 12.2539ZM8.16621 20.3266H12.9417C13.1771 20.3266 13.3696 20.5191 13.3696 20.7545V21.3398H9.17959C8.94424 21.3398 8.75166 21.5324 8.75166 21.7678V25.9579H8.16621C7.93086 25.9579 7.73828 25.7653 7.73828 25.53V20.7545C7.73828 20.5191 7.93086 20.3266 8.16621 20.3266ZM8.16621 28.3993H12.9417C13.1771 28.3993 13.3696 28.5919 13.3696 28.8272V29.4126H9.17959C8.94424 29.4126 8.75166 29.6052 8.75166 29.8405V34.0307H8.16621C7.93086 34.0307 7.73828 33.8381 7.73828 33.6027V28.8272C7.73828 28.5919 7.93086 28.3993 8.16621 28.3993Z" fill="#42A5F5"/>
<path fill-rule="evenodd" clip-rule="evenodd" d="M7.73828 15.2693H9.98086C10.6517 15.2693 11.199 14.7222 11.199 14.0512V12.2539H8.16621C7.93086 12.2539 7.73828 12.4465 7.73828 12.6818V15.2693Z" fill="#42A5F5"/>
<path fill-rule="evenodd" clip-rule="evenodd" d="M7.73828 15.2693H8.75166V13.6951C8.75166 13.4598 8.94424 13.2672 9.17959 13.2672H11.1991V12.2539H8.16621C7.93086 12.2539 7.73828 12.4465 7.73828 12.6818V15.2693Z" fill="#FE9321"/>
<path fill-rule="evenodd" clip-rule="evenodd" d="M11.3222 38.5698C11.6369 38.2532 12.1488 38.2518 12.4653 38.5666C12.7819 38.8815 12.7833 39.3933 12.4685 39.7098L11.1037 41.0873C10.7911 41.4018 10.284 41.4052 9.96701 41.0967L9.20568 40.3547C8.88566 40.0434 8.87853 39.5316 9.18986 39.2116C9.50119 38.8915 10.013 38.8845 10.333 39.1957L10.5208 39.3788L11.3222 38.5698ZM11.3222 30.4971C11.6369 30.1806 12.1488 30.1791 12.4653 30.4939C12.7819 30.8087 12.7833 31.3205 12.4685 31.6371L11.1037 33.0146C10.7911 33.329 10.284 33.3325 9.96701 33.024L9.20568 32.282C8.88566 31.9706 8.87853 31.4588 9.18986 31.1388C9.50119 30.8188 10.013 30.8117 10.333 31.123L10.5207 31.306L11.3222 30.4971ZM11.3222 14.3516C11.6369 14.0351 12.1488 14.0336 12.4653 14.3485C12.7819 14.6632 12.7833 15.1751 12.4685 15.4916L11.1037 16.8692C10.7911 17.1835 10.284 17.1871 9.96701 16.8786L9.20568 16.1366C8.88566 15.8252 8.87853 15.3134 9.18986 14.9934C9.50119 14.6734 10.013 14.6663 10.333 14.9776L10.5207 15.1606L11.3222 14.3516ZM11.3222 22.4243C11.6369 22.1078 12.1488 22.1063 12.4653 22.4211C12.7819 22.7359 12.7833 23.2477 12.4685 23.5643L11.1037 24.9418C10.7911 25.2563 10.284 25.2597 9.96701 24.9512L9.20568 24.2092C8.88566 23.8979 8.87853 23.3861 9.18986 23.0661C9.50119 22.746 10.013 22.7389 10.333 23.0502L10.5207 23.2332L11.3222 22.4243Z" fill="#42A5F5"/>
<path fill-rule="evenodd" clip-rule="evenodd" d="M9.7916 8.66885L3.58682 14.8737C3.4668 14.9938 3.37402 15.1256 3.30859 15.2689H8.96865C9.63945 15.2689 10.1868 14.7218 10.1868 14.0508V8.39062C10.0435 8.45605 9.91162 8.54883 9.7916 8.66885Z" fill="#EFF4F7"/>
<path fill-rule="evenodd" clip-rule="evenodd" d="M43.2406 12.5195L39.4331 19.1144C39.2987 19.3471 39.0581 19.474 38.79 19.4534L31.1533 18.865C29.3772 18.7282 27.905 17.8783 26.8986 16.4086L22.5709 10.0894C22.4191 9.86758 22.4087 9.5957 22.5431 9.36289L26.0295 3.32422L43.2406 12.5195Z" fill="#EF8A21"/>
<path fill-rule="evenodd" clip-rule="evenodd" d="M43.2403 12.5213L39.4328 19.1161C39.2984 19.3489 39.0578 19.4759 38.7897 19.4552L31.153 18.8668C29.377 18.73 27.9048 17.8801 26.8983 16.4104L26.1797 15.3609C27.1862 16.8307 28.6583 17.6806 30.4344 17.8174L38.0711 18.4058C38.3392 18.4264 38.5798 18.2994 38.7142 18.0667L42.228 11.9805L43.2403 12.5213Z" fill="#FFFEFD"/>
<path fill-rule="evenodd" clip-rule="evenodd" d="M22.5287 0.879621L37.7579 2.05286C37.899 2.0637 38.0984 2.19515 38.2009 2.34505L46.7491 14.827C46.8518 14.9768 46.8203 15.0905 46.6792 15.0796L31.4499 13.9064C31.3089 13.8955 31.1095 13.7641 31.007 13.6142L22.4588 1.13226C22.3562 0.982454 22.3876 0.868782 22.5287 0.879621Z" fill="#F8D6B2"/>
<path fill-rule="evenodd" clip-rule="evenodd" d="M22.5287 0.879621L23.8076 0.978157L31.6724 12.4619C31.775 12.6118 31.9743 12.7433 32.1153 12.7541L46.0657 13.8288L46.7493 14.827C46.8519 14.9768 46.8204 15.0905 46.6794 15.0796L31.4501 13.9064C31.3091 13.8955 31.1097 13.7641 31.0071 13.6142L22.4588 1.13226C22.3561 0.982454 22.3877 0.868782 22.5287 0.879621Z" fill="#FE9321"/>
<path fill-rule="evenodd" clip-rule="evenodd" d="M42.334 20.7856L42.9674 22.8404C42.9956 22.9321 42.9855 23.0216 42.9376 23.1046L41.4049 25.7594C41.3133 25.9181 41.1092 25.9727 40.9506 25.8811L38.2209 24.3051C38.0622 24.2135 38.0075 24.0094 38.0991 23.8508L39.6318 21.196C39.6798 21.1129 39.7522 21.0594 39.8458 21.0381L41.942 20.5592C42.1122 20.5204 42.2825 20.6188 42.334 20.7856Z" fill="#F7E7D5"/>
<path fill-rule="evenodd" clip-rule="evenodd" d="M42.3345 20.7856L42.9679 22.8404C42.9961 22.9321 42.986 23.0217 42.9381 23.1047L41.4054 25.7595C41.3138 25.9182 41.1097 25.9727 40.9511 25.8811L40.375 25.5485C40.5336 25.6401 40.7377 25.5854 40.8293 25.4268L42.362 22.772C42.41 22.6889 42.4201 22.5994 42.3918 22.5077L41.8012 20.5915L41.9426 20.5592C42.1127 20.5205 42.283 20.6188 42.3345 20.7856Z" fill="#FFC700"/>
<path fill-rule="evenodd" clip-rule="evenodd" d="M44.1263 15.6661L42.4056 15.5334L40.1127 19.5059C39.8479 19.9649 39.3712 20.2375 38.8488 20.2375C38.8105 20.2375 38.7719 20.2364 38.7327 20.2335L37.4965 20.1378V23.3321L39.0284 20.6789C39.1371 20.4903 39.3186 20.3555 39.5305 20.3077L41.7376 19.8039L44.1263 15.6661ZM42.1632 22.8818L40.9532 24.9786L39.0003 23.8515L40.2112 21.7547L41.71 21.412L42.1632 22.8818ZM35.9337 47.7725V20.0175L34.4562 19.9033V44.7324C34.4562 45.9062 33.5 46.8623 32.3255 46.8623H7.01289V47.7725C7.01289 48.085 7.26758 48.3398 7.58125 48.3398H35.3653C35.679 48.3398 35.9337 48.085 35.9337 47.7725ZM4.54141 45.2999C4.22773 45.2999 3.97305 45.045 3.97305 44.7324V16.0489H6.95811V17.4551C6.95811 18.1221 7.5002 18.6651 8.16719 18.6651H12.9426C13.6095 18.6651 14.1517 18.1221 14.1517 17.4551V12.6797C14.1517 12.0137 13.6096 11.4708 12.9426 11.4708H10.968V9.05366H21.8272C21.5892 9.52915 21.6251 10.0878 21.93 10.5323L23.3398 12.5909H17.0666C16.6359 12.5909 16.2855 12.9405 16.2855 13.372C16.2855 13.8036 16.6359 14.1533 17.0666 14.1533H24.4093L25.6611 15.9823H17.0666C16.6359 15.9823 16.2855 16.3321 16.2855 16.7636C16.2855 17.1943 16.6359 17.5449 17.0666 17.5449H26.8007C27.9061 18.7889 29.3739 19.5126 31.0957 19.6445L32.8939 19.7832V44.7324C32.8939 45.0449 32.6387 45.2999 32.3255 45.2999H4.54141ZM5.07842 14.4863H8.96895C9.20889 14.4863 9.40518 14.29 9.40518 14.0487V10.1583L5.07842 14.4863ZM8.52041 17.1025H12.5893V13.0332H10.968V13.9249L11.0628 13.8292C11.3663 13.5226 11.8614 13.5206 12.1683 13.8243C12.475 14.128 12.4769 14.6222 12.1729 14.9288L10.8086 16.3068C10.6557 16.461 10.4544 16.5381 10.2531 16.5381C10.0569 16.5381 9.85928 16.4638 9.7082 16.3154L9.3876 16.004C9.25215 16.0322 9.1126 16.0489 8.96895 16.0489H8.52031L8.52041 17.1025ZM23.2542 9.70015L25.1417 6.43071L30.3634 14.0556C30.5619 14.3448 30.957 14.6513 31.3918 14.6855L40.6787 15.4004L38.7903 18.6708L31.2159 18.0867C29.6836 17.9687 28.4142 17.2362 27.546 15.9676L23.2542 9.70015ZM23.84 1.76343L31.6281 13.1368L42.4174 13.9677L34.1807 8.63569C33.8187 8.40122 33.715 7.91685 33.9494 7.55454C34.1839 7.19321 34.667 7.08872 35.0295 7.32407L45.1537 13.8769L37.5821 2.82329L23.84 1.76343ZM22.4721 1.65894L22.4698 1.65806C22.4707 1.65796 22.4707 1.65894 22.4721 1.65894ZM47.4747 15.4248C47.3167 15.6983 47.0238 15.8613 46.6963 15.8613C46.671 15.8613 46.6456 15.8604 46.6203 15.8584L45.8525 15.7988L43.0899 20.5849L43.7568 22.7481C43.8213 22.955 43.796 23.1797 43.6868 23.3681L41.9154 26.4364C41.8118 26.6162 41.6409 26.7471 41.4405 26.8007C41.3742 26.8183 41.3069 26.8272 41.2384 26.8272C41.1029 26.8272 40.968 26.7919 40.8478 26.7226L37.5421 24.8144C37.5265 24.8046 37.5107 24.7939 37.4965 24.7841V47.7724C37.4965 48.9462 36.5403 49.9023 35.3653 49.9023H7.58125C6.40625 49.9023 5.4501 48.9462 5.4501 47.7724V46.8622H4.54131C3.36631 46.8622 2.41016 45.9061 2.41016 44.7323V15.826C2.41016 15.2489 2.62617 14.7275 3.03428 14.3192L9.23936 8.11509C9.64746 7.70689 10.1679 7.49097 10.745 7.49097H22.7259L24.1629 5.00073L21.8157 1.57398C21.5841 1.23589 21.5551 0.847608 21.7355 0.534034C21.9064 0.23921 22.2325 0.0729987 22.5899 0.100635L37.8193 1.27417C38.2541 1.30737 38.6483 1.61411 38.8469 1.90425L47.3945 14.3856C47.6263 14.7227 47.6558 15.1114 47.4747 15.4248ZM9.7083 32.461L8.94648 31.7188C8.63789 31.418 8.63096 30.9237 8.93272 30.6143C9.2335 30.3057 9.72861 30.299 10.0372 30.6006L10.2436 30.8018L11.063 29.9748C11.3665 29.668 11.8616 29.6661 12.1685 29.9688C12.4752 30.2725 12.4771 30.7676 12.173 31.0742L10.8088 32.4512C10.6559 32.6054 10.4546 32.6827 10.2533 32.6827C10.0569 32.6827 9.85938 32.6094 9.7083 32.461ZM29.1272 24.0546C29.5587 24.0546 29.9083 24.4043 29.9083 24.8359C29.9083 25.2675 29.5587 25.6172 29.1272 25.6172H17.0666C16.6351 25.6172 16.2855 25.2675 16.2855 24.8359C16.2855 24.4043 16.6351 24.0546 17.0666 24.0546H29.1272ZM17.0666 22.2265C16.6351 22.2265 16.2855 21.876 16.2855 21.4454C16.2855 21.0137 16.6351 20.6641 17.0666 20.6641H25.0928C25.5243 20.6641 25.8739 21.0137 25.8739 21.4454C25.8739 21.8761 25.5243 22.2265 25.0928 22.2265H17.0666ZM17.0666 30.2989C16.6351 30.2989 16.2855 29.9491 16.2855 29.5175C16.2855 29.086 16.6351 28.7364 17.0666 28.7364H25.0928C25.5243 28.7364 25.8739 29.086 25.8739 29.5175C25.8739 29.9491 25.5243 30.2989 25.0928 30.2989H17.0666ZM29.1272 32.127C29.5587 32.127 29.9083 32.4775 29.9083 32.9083C29.9083 33.3399 29.5587 33.6895 29.1272 33.6895H17.0666C16.6351 33.6895 16.2855 33.3399 16.2855 32.9083C16.2855 32.4776 16.6351 32.127 17.0666 32.127H29.1272ZM12.5893 21.1054V25.1749H8.52041V21.1054H12.5893ZM14.1516 20.7531V25.5285C14.1516 26.1944 13.6095 26.7374 12.9425 26.7374H8.16709C7.5002 26.7374 6.95801 26.1944 6.95801 25.5285V20.7531C6.95801 20.0859 7.5001 19.5429 8.16709 19.5429H12.9425C13.6095 19.5428 14.1516 20.0859 14.1516 20.7531ZM9.7083 24.3886L8.94648 23.6465C8.63789 23.3458 8.63096 22.8505 8.93272 22.542C9.2335 22.2326 9.72861 22.2266 10.0372 22.5274L10.2436 22.7286L11.063 21.9014C11.3665 21.5958 11.8616 21.5928 12.1685 21.8964C12.4752 22.2003 12.4771 22.6953 12.173 23.002L10.8088 24.379C10.6559 24.5333 10.4546 24.6103 10.2533 24.6103C10.0569 24.6103 9.85938 24.5362 9.7083 24.3886ZM12.5893 29.1788V33.2471H8.52041V29.1788H12.5893ZM14.1516 28.8252V33.6005C14.1516 34.2675 13.6095 34.8096 12.9425 34.8096H8.16709C7.5002 34.8096 6.95801 34.2675 6.95801 33.6005V28.8252C6.95801 28.1583 7.5001 27.6162 8.16709 27.6162H12.9425C13.6095 27.6162 14.1516 28.1583 14.1516 28.8252ZM12.5893 37.2509V41.3204H8.52041V37.2509H12.5893ZM14.1516 36.8985V41.6739C14.1516 42.3399 13.6095 42.883 12.9425 42.883H8.16709C7.5002 42.883 6.95801 42.34 6.95801 41.6739V36.8985C6.95801 36.2315 7.5001 35.6885 8.16709 35.6885H12.9425C13.6095 35.6885 14.1516 36.2315 14.1516 36.8985ZM9.7083 40.5342L8.94648 39.792C8.63789 39.4901 8.63096 38.9961 8.93272 38.6876C9.2335 38.3779 9.72861 38.3719 10.0372 38.6728L10.2436 38.874L11.063 38.0469C11.3665 37.7403 11.8616 37.7383 12.1685 38.042C12.4752 38.3458 12.4771 38.8398 12.173 39.1465L10.8088 40.5244C10.6559 40.6787 10.4546 40.7559 10.2533 40.7559C10.0569 40.7559 9.85938 40.6816 9.7083 40.5342ZM17.0666 38.3711C16.6359 38.3711 16.2855 38.0215 16.2855 37.5899C16.2855 37.1591 16.6359 36.8087 17.0666 36.8087H25.0928C25.5243 36.8087 25.8739 37.1592 25.8739 37.5899C25.8739 38.0215 25.5243 38.3711 25.0928 38.3711H17.0666ZM29.9083 40.9815C29.9083 41.4131 29.5587 41.7626 29.1272 41.7626H17.0666C16.6359 41.7626 16.2855 41.413 16.2855 40.9815C16.2855 40.55 16.6359 40.2001 17.0666 40.2001H29.1272C29.5587 40.2001 29.9083 40.5499 29.9083 40.9815Z" fill="#FF9422"/>
</svg>
