<svg width="38" height="38" viewBox="0 0 38 38" fill="none" xmlns="http://www.w3.org/2000/svg">
<g clip-path="url(#clip0_3260_437)">
<path d="M35.2169 33.9251C36.3441 33.9251 37.2578 33.0114 37.2578 31.8843V14.168H0.742188V31.8844C0.742188 33.0115 1.65589 33.9252 2.78305 33.9252L35.2169 33.9251Z" fill="#FFD6AA"/>
<path d="M35.2169 4.07422H2.78305C1.65589 4.07422 0.742188 4.98793 0.742188 6.11509V14.168H37.2578V6.11509C37.2578 4.98793 36.3441 4.07422 35.2169 4.07422Z" fill="#FFC587"/>
<path d="M15.7305 29.7588H5.86594C5.26261 29.7588 4.77344 29.2697 4.77344 28.6663V19.3308C4.77344 18.7275 5.26254 18.2383 5.86594 18.2383H15.7305C16.3338 18.2383 16.823 18.7274 16.823 19.3308V28.6664C16.8229 29.2697 16.3338 29.7588 15.7305 29.7588Z" fill="#F9D1A7"/>
<path d="M10.7965 24.7289C9.31459 24.7289 8.11328 23.5276 8.11328 22.0457V20.9254C8.11328 19.4435 9.31459 18.2422 10.7965 18.2422C12.2784 18.2422 13.4797 19.4435 13.4797 20.9254V22.0457C13.4797 23.5275 12.2784 24.7289 10.7965 24.7289Z" fill="#FFD0C6"/>
<path d="M16.5841 29.3477C16.3843 29.5987 16.0755 29.7597 15.7299 29.7597H5.86523C5.5196 29.7597 5.21152 29.5993 5.01172 29.3483L5.09974 28.8161C5.27126 27.7767 5.99 26.9107 6.97955 26.55L8.63656 25.9461C8.94271 25.8351 9.16151 25.5631 9.20426 25.2398L9.33043 24.2897C9.75162 24.5657 10.2562 24.726 10.7976 24.726C11.339 24.726 11.8436 24.5657 12.2654 24.2891L12.3916 25.2398C12.4343 25.5631 12.6524 25.8351 12.9579 25.9461L14.6163 26.55C15.6058 26.9107 16.3246 27.7767 16.496 28.8161L16.5841 29.3477Z" fill="#FFD0C6"/>
<path d="M35.2169 3.33203H2.78305C1.24851 3.33203 0 4.58047 0 6.11501V31.8843C0 33.4188 1.24851 34.6673 2.78305 34.6673H15.5212C15.9311 34.6673 16.2634 34.3351 16.2634 33.9251C16.2634 33.5152 15.9311 33.183 15.5212 33.183H2.78305C2.06699 33.183 1.48438 32.6004 1.48438 31.8843V14.9102H36.5156V31.8844C36.5156 32.6004 35.933 33.183 35.2169 33.183H22.0502C21.6403 33.183 21.308 33.5153 21.308 33.9252C21.308 34.3351 21.6403 34.6674 22.0502 34.6674H35.2169C36.7515 34.6674 38 33.419 38 31.8844V6.11501C38 4.58047 36.7515 3.33203 35.2169 3.33203ZM1.48438 13.4258V6.11501C1.48438 5.39895 2.06699 4.81633 2.78305 4.81633H35.2169C35.933 4.81633 36.5156 5.39888 36.5156 6.11501V13.4257H1.48438V13.4258Z" fill="#FE9321"/>
<path d="M15.7304 17.5H5.86594C4.85434 17.5 4.03125 18.323 4.03125 19.3347V28.6702C4.03125 29.669 4.86784 30.5049 5.86594 30.5049H15.7305C16.7288 30.5049 17.5651 29.6693 17.5651 28.6702V19.3346C17.565 18.323 16.7421 17.5 15.7304 17.5ZM16.0807 19.3346V26.5891C15.7339 26.2732 15.3253 26.0213 14.8708 25.8555L13.212 25.2516C13.1666 25.235 13.1344 25.1944 13.1279 25.1451L13.0577 24.6167C13.7717 23.9885 14.2235 23.069 14.2235 22.0455V20.9253C14.2235 20.2051 13.9996 19.5365 13.6183 18.9843H15.7303C15.9235 18.9844 16.0807 19.1415 16.0807 19.3346ZM15.7312 29.0204C15.731 29.0204 15.7308 29.0204 15.7306 29.0204H5.86594C5.86557 29.0204 5.86527 29.0203 5.86497 29.0203C5.84968 29.0202 5.83506 29.0177 5.82022 29.0158L5.83276 28.9399C5.96042 28.1663 6.49754 27.5189 7.23438 27.2503L8.89035 26.6469C9.45219 26.4431 9.85186 25.9519 9.93773 25.3621C10.4982 25.5069 11.099 25.507 11.6595 25.3619C11.7455 25.9519 12.1445 26.4429 12.7048 26.6466L14.3628 27.2503C15.0998 27.5189 15.6369 28.1663 15.7646 28.9403L15.777 29.0157C15.7618 29.0178 15.7468 29.0204 15.7312 29.0204ZM12.7392 20.9253V22.0456C12.7392 22.7433 12.369 23.356 11.8149 23.6982C11.1997 24.0789 10.401 24.0785 9.78491 23.7004C9.22879 23.3587 8.8571 22.7447 8.8571 22.0455V20.9253C8.8571 19.855 9.72784 18.9843 10.7981 18.9843C11.8685 18.9843 12.7392 19.8551 12.7392 20.9253ZM5.86594 18.9844H7.97791C7.59672 19.5365 7.37273 20.2052 7.37273 20.9254V22.0457C7.37273 23.0695 7.82487 23.9892 8.5393 24.6175L8.46916 25.1458C8.46278 25.1943 8.43027 25.2349 8.38322 25.2519L6.72606 25.8558C6.27132 26.0215 5.86245 26.2737 5.51563 26.5899V19.3347C5.51563 19.1415 5.67275 18.9844 5.86594 18.9844Z" fill="#FE9321"/>
<path d="M33.015 17.5H20.7695C20.3596 17.5 20.0273 17.8323 20.0273 18.2422C20.0273 18.6521 20.3596 18.9844 20.7695 18.9844H33.015C33.4249 18.9844 33.7572 18.6521 33.7572 18.2422C33.7572 17.8323 33.4249 17.5 33.015 17.5Z" fill="#FE9321"/>
<path d="M33.0169 21.4727H26.1992C25.7893 21.4727 25.457 21.8049 25.457 22.2148C25.457 22.6248 25.7893 22.957 26.1992 22.957H33.0169C33.4268 22.957 33.7591 22.6248 33.7591 22.2148C33.7591 21.8049 33.4268 21.4727 33.0169 21.4727Z" fill="#FE9321"/>
<path d="M23.698 22.2148C23.698 21.8049 23.3657 21.4727 22.9558 21.4727H20.7695C20.3596 21.4727 20.0273 21.8049 20.0273 22.2148C20.0273 22.6248 20.3596 22.957 20.7695 22.957H22.9558C23.3657 22.957 23.698 22.6248 23.698 22.2148Z" fill="#FE9321"/>
<path d="M33.0158 29.0195H27.0234C26.6135 29.0195 26.2812 29.3518 26.2812 29.7617C26.2812 30.1716 26.6135 30.5039 27.0234 30.5039H33.0158C33.4257 30.5039 33.758 30.1716 33.758 29.7617C33.758 29.3518 33.4257 29.0195 33.0158 29.0195Z" fill="#FE9321"/>
<path d="M19.4606 33.64C19.3072 33.2658 18.8649 33.0845 18.4921 33.2385C18.1185 33.3928 17.9352 33.8344 18.0905 34.2078C18.246 34.5815 18.6853 34.7628 19.0591 34.6086C19.4323 34.4547 19.6161 34.0132 19.4606 33.64Z" fill="#FE9321"/>
<path d="M27.0852 6.71951C27.0826 6.71268 27.0799 6.70593 27.0771 6.69917C26.9463 6.38114 26.6397 6.17578 26.2958 6.17578C26.2956 6.17578 26.2952 6.17578 26.295 6.17578C25.9509 6.17608 25.6442 6.38218 25.5139 6.70073C25.5116 6.7063 25.5094 6.71194 25.5073 6.71765L23.8066 11.1829C23.6607 11.5659 23.853 11.9947 24.2361 12.1406C24.323 12.1737 24.4122 12.1894 24.5 12.1894C24.7991 12.1894 25.081 12.0073 25.1938 11.7112L25.4353 11.0772H27.1431L27.3816 11.7091C27.5263 12.0926 27.9545 12.2859 28.338 12.1414C28.7215 11.9967 28.9151 11.5684 28.7704 11.185L27.0852 6.71951ZM26.0006 9.59266L26.2931 8.82472L26.5829 9.59266H26.0006Z" fill="#FE9321"/>
<path d="M16.0703 6.17578C15.6604 6.17578 15.3281 6.50806 15.3281 6.91797V11.4469C15.3281 11.8569 15.6604 12.1891 16.0703 12.1891C16.4802 12.1891 16.8125 11.8569 16.8125 11.4469V6.91797C16.8125 6.50806 16.4802 6.17578 16.0703 6.17578Z" fill="#FE9321"/>
<path d="M13.3803 6.21824C12.9915 6.0891 12.5713 6.29958 12.442 6.68856L11.5575 9.35116L10.6272 6.6709C10.4927 6.28363 10.0699 6.07871 9.68261 6.21312C9.29541 6.3476 9.09042 6.77043 9.22483 7.1577L10.7751 11.6237C10.8947 11.9603 11.214 12.1855 11.5708 12.1855H11.5765C11.9357 12.1831 12.2547 11.953 12.3719 11.608L13.8507 7.15659C13.9799 6.76761 13.7693 6.34745 13.3803 6.21824Z" fill="#FE9321"/>
<path d="M21.3691 8.52056C20.8446 8.32707 20.354 8.11695 20.1718 8.03761C20.1426 8.00689 20.1314 7.96674 20.1384 7.91775C20.1525 7.81949 20.2388 7.73955 20.3751 7.69843C20.9265 7.53226 21.4493 7.95093 21.4545 7.95508C21.4545 7.95508 22.0552 8.33627 22.4757 7.81659C22.9022 7.28949 22.4096 6.81404 22.4096 6.81404C21.9936 6.4644 21.0068 5.95778 19.947 6.27707C19.2554 6.4854 18.7657 7.03321 18.6691 7.70675C18.5778 8.34295 18.8537 8.95503 19.3893 9.30423C19.4221 9.32561 19.4565 9.34438 19.4922 9.36027C19.5187 9.37207 20.1475 9.65195 20.8553 9.91312C21.0962 10.002 21.3668 10.1653 21.3367 10.3336C21.3101 10.4827 21.0953 10.7034 20.7189 10.7034C20.3176 10.7034 19.9332 10.5435 19.6905 10.2758C19.4153 9.97213 18.9459 9.94904 18.6422 10.2243C18.3385 10.4996 18.3154 10.969 18.5907 11.2727C19.1178 11.8542 19.8935 12.1879 20.7189 12.1879C21.7587 12.1879 22.6331 11.5178 22.7979 10.5945C22.9234 9.89293 22.6138 8.9796 21.3691 8.52056Z" fill="#FE9321"/>
</g>
<defs>
<clipPath id="clip0_3260_437">
<rect width="38" height="38" fill="white"/>
</clipPath>
</defs>
</svg>
