<svg width="506" height="23" viewBox="0 0 506 23" fill="none" xmlns="http://www.w3.org/2000/svg">
<g filter="url(#filter0_i_3194_319)">
<path d="M15.78 22L14.31 17.77H5.37L3.9 22H0.15L7.77 0.999999H11.91L19.5 22H15.78ZM6.51 14.53H13.17L9.84 5.05L6.51 14.53ZM28.2473 22.39C25.9873 22.39 24.0973 21.63 22.5773 20.11C21.0773 18.59 20.3273 16.72 20.3273 14.5C20.3273 12.26 21.0773 10.39 22.5773 8.89C24.0973 7.37 25.9873 6.61 28.2473 6.61C29.7073 6.61 31.0373 6.96 32.2373 7.66C33.4373 8.36 34.3373 9.3 34.9373 10.48L32.1473 12.1C31.8073 11.38 31.2873 10.82 30.5873 10.42C29.9073 10 29.1173 9.79 28.2173 9.79C26.8973 9.79 25.7873 10.24 24.8873 11.14C24.0073 12.04 23.5673 13.16 23.5673 14.5C23.5673 15.84 24.0073 16.96 24.8873 17.86C25.7873 18.76 26.8973 19.21 28.2173 19.21C29.0973 19.21 29.8873 19 30.5873 18.58C31.3073 18.16 31.8473 17.6 32.2073 16.9L34.9973 18.49C34.3573 19.69 33.4373 20.64 32.2373 21.34C31.0373 22.04 29.7073 22.39 28.2473 22.39ZM44.1848 22.39C41.9248 22.39 40.0348 21.63 38.5148 20.11C37.0148 18.59 36.2648 16.72 36.2648 14.5C36.2648 12.26 37.0148 10.39 38.5148 8.89C40.0348 7.37 41.9248 6.61 44.1848 6.61C45.6448 6.61 46.9748 6.96 48.1748 7.66C49.3748 8.36 50.2748 9.3 50.8748 10.48L48.0848 12.1C47.7448 11.38 47.2248 10.82 46.5248 10.42C45.8448 10 45.0548 9.79 44.1548 9.79C42.8348 9.79 41.7248 10.24 40.8248 11.14C39.9448 12.04 39.5048 13.16 39.5048 14.5C39.5048 15.84 39.9448 16.96 40.8248 17.86C41.7248 18.76 42.8348 19.21 44.1548 19.21C45.0348 19.21 45.8248 19 46.5248 18.58C47.2448 18.16 47.7848 17.6 48.1448 16.9L50.9348 18.49C50.2948 19.69 49.3748 20.64 48.1748 21.34C46.9748 22.04 45.6448 22.39 44.1848 22.39ZM60.1223 22.39C57.9223 22.39 56.0523 21.63 54.5123 20.11C52.9723 18.59 52.2023 16.72 52.2023 14.5C52.2023 12.28 52.9723 10.41 54.5123 8.89C56.0523 7.37 57.9223 6.61 60.1223 6.61C62.3423 6.61 64.2123 7.37 65.7323 8.89C67.2723 10.41 68.0423 12.28 68.0423 14.5C68.0423 16.72 67.2723 18.59 65.7323 20.11C64.2123 21.63 62.3423 22.39 60.1223 22.39ZM56.7923 17.89C57.6923 18.79 58.8023 19.24 60.1223 19.24C61.4423 19.24 62.5523 18.79 63.4523 17.89C64.3523 16.99 64.8023 15.86 64.8023 14.5C64.8023 13.14 64.3523 12.01 63.4523 11.11C62.5523 10.21 61.4423 9.76 60.1223 9.76C58.8023 9.76 57.6923 10.21 56.7923 11.11C55.8923 12.01 55.4423 13.14 55.4423 14.5C55.4423 15.86 55.8923 16.99 56.7923 17.89ZM87.352 6.61C89.052 6.61 90.422 7.16 91.462 8.26C92.502 9.36 93.022 10.84 93.022 12.7V22H89.782V12.91C89.782 11.87 89.522 11.07 89.002 10.51C88.482 9.93 87.772 9.64 86.872 9.64C85.872 9.64 85.072 9.97 84.472 10.63C83.892 11.29 83.602 12.28 83.602 13.6V22H80.362V12.91C80.362 11.87 80.112 11.07 79.612 10.51C79.132 9.93 78.442 9.64 77.542 9.64C76.562 9.64 75.762 9.98 75.142 10.66C74.522 11.32 74.212 12.3 74.212 13.6V22H70.972V7H74.212V8.8C75.172 7.34 76.602 6.61 78.502 6.61C80.422 6.61 81.842 7.4 82.762 8.98C83.762 7.4 85.292 6.61 87.352 6.61ZM103.57 22.39C101.37 22.39 99.4996 21.63 97.9596 20.11C96.4196 18.59 95.6496 16.72 95.6496 14.5C95.6496 12.28 96.4196 10.41 97.9596 8.89C99.4996 7.37 101.37 6.61 103.57 6.61C105.79 6.61 107.66 7.37 109.18 8.89C110.72 10.41 111.49 12.28 111.49 14.5C111.49 16.72 110.72 18.59 109.18 20.11C107.66 21.63 105.79 22.39 103.57 22.39ZM100.24 17.89C101.14 18.79 102.25 19.24 103.57 19.24C104.89 19.24 106 18.79 106.9 17.89C107.8 16.99 108.25 15.86 108.25 14.5C108.25 13.14 107.8 12.01 106.9 11.11C106 10.21 104.89 9.76 103.57 9.76C102.25 9.76 101.14 10.21 100.24 11.11C99.3396 12.01 98.8896 13.14 98.8896 14.5C98.8896 15.86 99.3396 16.99 100.24 17.89ZM126.299 0.999999H129.539V22H126.299V19.84C125.079 21.54 123.329 22.39 121.049 22.39C118.989 22.39 117.229 21.63 115.769 20.11C114.309 18.57 113.579 16.7 113.579 14.5C113.579 12.28 114.309 10.41 115.769 8.89C117.229 7.37 118.989 6.61 121.049 6.61C123.329 6.61 125.079 7.45 126.299 9.13V0.999999ZM118.169 17.95C119.069 18.85 120.199 19.3 121.559 19.3C122.919 19.3 124.049 18.85 124.949 17.95C125.849 17.03 126.299 15.88 126.299 14.5C126.299 13.12 125.849 11.98 124.949 11.08C124.049 10.16 122.919 9.7 121.559 9.7C120.199 9.7 119.069 10.16 118.169 11.08C117.269 11.98 116.819 13.12 116.819 14.5C116.819 15.88 117.269 17.03 118.169 17.95ZM145.196 7H148.436V22H145.196V19.84C143.976 21.54 142.226 22.39 139.946 22.39C137.886 22.39 136.126 21.63 134.666 20.11C133.206 18.57 132.476 16.7 132.476 14.5C132.476 12.28 133.206 10.41 134.666 8.89C136.126 7.37 137.886 6.61 139.946 6.61C142.226 6.61 143.976 7.45 145.196 9.13V7ZM137.066 17.95C137.966 18.85 139.096 19.3 140.456 19.3C141.816 19.3 142.946 18.85 143.846 17.95C144.746 17.03 145.196 15.88 145.196 14.5C145.196 13.12 144.746 11.98 143.846 11.08C142.946 10.16 141.816 9.7 140.456 9.7C139.096 9.7 137.966 10.16 137.066 11.08C136.166 11.98 135.716 13.12 135.716 14.5C135.716 15.88 136.166 17.03 137.066 17.95ZM160.582 10.12H156.862V17.32C156.862 17.94 157.002 18.39 157.282 18.67C157.562 18.93 157.972 19.08 158.512 19.12C159.072 19.14 159.762 19.13 160.582 19.09V22C158.102 22.3 156.322 22.09 155.242 21.37C154.162 20.63 153.622 19.28 153.622 17.32V10.12H150.862V7H153.622V3.76L156.862 2.8V7H160.582V10.12ZM166.581 4.15C166.181 4.55 165.701 4.75 165.141 4.75C164.581 4.75 164.091 4.55 163.671 4.15C163.271 3.73 163.071 3.24 163.071 2.68C163.071 2.12 163.271 1.64 163.671 1.24C164.071 0.819999 164.561 0.609998 165.141 0.609998C165.721 0.609998 166.211 0.819999 166.611 1.24C167.011 1.64 167.211 2.12 167.211 2.68C167.211 3.24 167.001 3.73 166.581 4.15ZM163.521 22V7H166.761V22H163.521ZM177.603 22.39C175.403 22.39 173.533 21.63 171.993 20.11C170.453 18.59 169.683 16.72 169.683 14.5C169.683 12.28 170.453 10.41 171.993 8.89C173.533 7.37 175.403 6.61 177.603 6.61C179.823 6.61 181.693 7.37 183.213 8.89C184.753 10.41 185.523 12.28 185.523 14.5C185.523 16.72 184.753 18.59 183.213 20.11C181.693 21.63 179.823 22.39 177.603 22.39ZM174.273 17.89C175.173 18.79 176.283 19.24 177.603 19.24C178.923 19.24 180.033 18.79 180.933 17.89C181.833 16.99 182.283 15.86 182.283 14.5C182.283 13.14 181.833 12.01 180.933 11.11C180.033 10.21 178.923 9.76 177.603 9.76C176.283 9.76 175.173 10.21 174.273 11.11C173.373 12.01 172.923 13.14 172.923 14.5C172.923 15.86 173.373 16.99 174.273 17.89ZM196.343 6.61C198.063 6.61 199.453 7.16 200.513 8.26C201.573 9.36 202.103 10.87 202.103 12.79V22H198.863V13.12C198.863 12 198.563 11.14 197.963 10.54C197.363 9.94 196.543 9.64 195.503 9.64C194.363 9.64 193.443 10 192.743 10.72C192.043 11.42 191.693 12.5 191.693 13.96V22H188.453V7H191.693V8.92C192.673 7.38 194.223 6.61 196.343 6.61ZM224.971 7H228.211V22H224.971V19.84C223.751 21.54 222.001 22.39 219.721 22.39C217.661 22.39 215.901 21.63 214.441 20.11C212.981 18.57 212.251 16.7 212.251 14.5C212.251 12.28 212.981 10.41 214.441 8.89C215.901 7.37 217.661 6.61 219.721 6.61C222.001 6.61 223.751 7.45 224.971 9.13V7ZM216.841 17.95C217.741 18.85 218.871 19.3 220.231 19.3C221.591 19.3 222.721 18.85 223.621 17.95C224.521 17.03 224.971 15.88 224.971 14.5C224.971 13.12 224.521 11.98 223.621 11.08C222.721 10.16 221.591 9.7 220.231 9.7C218.871 9.7 217.741 10.16 216.841 11.08C215.941 11.98 215.491 13.12 215.491 14.5C215.491 15.88 215.941 17.03 216.841 17.95ZM239.878 6.61C241.598 6.61 242.988 7.16 244.048 8.26C245.108 9.36 245.638 10.87 245.638 12.79V22H242.398V13.12C242.398 12 242.098 11.14 241.498 10.54C240.898 9.94 240.078 9.64 239.038 9.64C237.898 9.64 236.978 10 236.278 10.72C235.578 11.42 235.228 12.5 235.228 13.96V22H231.988V7H235.228V8.92C236.208 7.38 237.758 6.61 239.878 6.61ZM261.006 0.999999H264.246V22H261.006V19.84C259.786 21.54 258.036 22.39 255.756 22.39C253.696 22.39 251.936 21.63 250.476 20.11C249.016 18.57 248.286 16.7 248.286 14.5C248.286 12.28 249.016 10.41 250.476 8.89C251.936 7.37 253.696 6.61 255.756 6.61C258.036 6.61 259.786 7.45 261.006 9.13V0.999999ZM252.876 17.95C253.776 18.85 254.906 19.3 256.266 19.3C257.626 19.3 258.756 18.85 259.656 17.95C260.556 17.03 261.006 15.88 261.006 14.5C261.006 13.12 260.556 11.98 259.656 11.08C258.756 10.16 257.626 9.7 256.266 9.7C254.906 9.7 253.776 10.16 252.876 11.08C251.976 11.98 251.526 13.12 251.526 14.5C251.526 15.88 251.976 17.03 252.876 17.95ZM283.893 10.12H280.173V17.32C280.173 17.94 280.313 18.39 280.593 18.67C280.873 18.93 281.283 19.08 281.823 19.12C282.383 19.14 283.073 19.13 283.893 19.09V22C281.413 22.3 279.633 22.09 278.553 21.37C277.473 20.63 276.933 19.28 276.933 17.32V10.12H274.173V7H276.933V3.76L280.173 2.8V7H283.893V10.12ZM290.218 9.52C291.038 7.66 292.578 6.73 294.838 6.73V10.24C293.598 10.16 292.518 10.46 291.598 11.14C290.678 11.8 290.218 12.9 290.218 14.44V22H286.978V7H290.218V9.52ZM308.409 7H311.649V22H308.409V19.84C307.189 21.54 305.439 22.39 303.159 22.39C301.099 22.39 299.339 21.63 297.879 20.11C296.419 18.57 295.689 16.7 295.689 14.5C295.689 12.28 296.419 10.41 297.879 8.89C299.339 7.37 301.099 6.61 303.159 6.61C305.439 6.61 307.189 7.45 308.409 9.13V7ZM300.279 17.95C301.179 18.85 302.309 19.3 303.669 19.3C305.029 19.3 306.159 18.85 307.059 17.95C307.959 17.03 308.409 15.88 308.409 14.5C308.409 13.12 307.959 11.98 307.059 11.08C306.159 10.16 305.029 9.7 303.669 9.7C302.309 9.7 301.179 10.16 300.279 11.08C299.379 11.98 298.929 13.12 298.929 14.5C298.929 15.88 299.379 17.03 300.279 17.95ZM325.595 7H329.135L323.285 22H319.535L313.685 7H317.225L321.425 18.4L325.595 7ZM333.151 15.88C333.391 17.02 333.941 17.9 334.801 18.52C335.661 19.12 336.711 19.42 337.951 19.42C339.671 19.42 340.961 18.8 341.821 17.56L344.491 19.12C343.011 21.3 340.821 22.39 337.921 22.39C335.481 22.39 333.511 21.65 332.011 20.17C330.511 18.67 329.761 16.78 329.761 14.5C329.761 12.26 330.501 10.39 331.981 8.89C333.461 7.37 335.361 6.61 337.681 6.61C339.881 6.61 341.681 7.38 343.081 8.92C344.501 10.46 345.211 12.33 345.211 14.53C345.211 14.87 345.171 15.32 345.091 15.88H333.151ZM333.121 13.24H341.941C341.721 12.02 341.211 11.1 340.411 10.48C339.631 9.86 338.711 9.55 337.651 9.55C336.451 9.55 335.451 9.88 334.651 10.54C333.851 11.2 333.341 12.1 333.121 13.24ZM348.062 22V0.0999994H351.302V22H348.062ZM374.444 7H377.684V22H374.444V19.84C373.224 21.54 371.474 22.39 369.194 22.39C367.134 22.39 365.374 21.63 363.914 20.11C362.454 18.57 361.724 16.7 361.724 14.5C361.724 12.28 362.454 10.41 363.914 8.89C365.374 7.37 367.134 6.61 369.194 6.61C371.474 6.61 373.224 7.45 374.444 9.13V7ZM366.314 17.95C367.214 18.85 368.344 19.3 369.704 19.3C371.064 19.3 372.194 18.85 373.094 17.95C373.994 17.03 374.444 15.88 374.444 14.5C374.444 13.12 373.994 11.98 373.094 11.08C372.194 10.16 371.064 9.7 369.704 9.7C368.344 9.7 367.214 10.16 366.314 11.08C365.414 11.98 364.964 13.12 364.964 14.5C364.964 15.88 365.414 17.03 366.314 17.95ZM384.282 11.14C384.282 11.64 384.552 12.04 385.092 12.34C385.652 12.62 386.322 12.87 387.102 13.09C387.902 13.29 388.702 13.53 389.502 13.81C390.302 14.09 390.972 14.57 391.512 15.25C392.072 15.91 392.352 16.75 392.352 17.77C392.352 19.21 391.792 20.34 390.672 21.16C389.572 21.98 388.182 22.39 386.502 22.39C385.022 22.39 383.752 22.08 382.692 21.46C381.632 20.84 380.862 19.98 380.382 18.88L383.172 17.26C383.692 18.7 384.802 19.42 386.502 19.42C388.202 19.42 389.052 18.86 389.052 17.74C389.052 17.26 388.772 16.87 388.212 16.57C387.672 16.27 387.002 16.02 386.202 15.82C385.422 15.6 384.632 15.35 383.832 15.07C383.032 14.79 382.352 14.33 381.792 13.69C381.252 13.03 380.982 12.2 380.982 11.2C380.982 9.82 381.502 8.71 382.542 7.87C383.602 7.03 384.912 6.61 386.472 6.61C387.712 6.61 388.812 6.89 389.772 7.45C390.752 7.99 391.502 8.75 392.022 9.73L389.292 11.26C388.772 10.12 387.832 9.55 386.472 9.55C385.852 9.55 385.332 9.69 384.912 9.97C384.492 10.23 384.282 10.62 384.282 11.14ZM397.202 11.14C397.202 11.64 397.472 12.04 398.012 12.34C398.572 12.62 399.242 12.87 400.022 13.09C400.822 13.29 401.622 13.53 402.422 13.81C403.222 14.09 403.892 14.57 404.432 15.25C404.992 15.91 405.272 16.75 405.272 17.77C405.272 19.21 404.712 20.34 403.592 21.16C402.492 21.98 401.102 22.39 399.422 22.39C397.942 22.39 396.672 22.08 395.612 21.46C394.552 20.84 393.782 19.98 393.302 18.88L396.092 17.26C396.612 18.7 397.722 19.42 399.422 19.42C401.122 19.42 401.972 18.86 401.972 17.74C401.972 17.26 401.692 16.87 401.132 16.57C400.592 16.27 399.922 16.02 399.122 15.82C398.342 15.6 397.552 15.35 396.752 15.07C395.952 14.79 395.272 14.33 394.712 13.69C394.172 13.03 393.902 12.2 393.902 11.2C393.902 9.82 394.422 8.71 395.462 7.87C396.522 7.03 397.832 6.61 399.392 6.61C400.632 6.61 401.732 6.89 402.692 7.45C403.672 7.99 404.422 8.75 404.942 9.73L402.212 11.26C401.692 10.12 400.752 9.55 399.392 9.55C398.772 9.55 398.252 9.69 397.832 9.97C397.412 10.23 397.202 10.62 397.202 11.14ZM411.005 4.15C410.605 4.55 410.125 4.75 409.565 4.75C409.005 4.75 408.515 4.55 408.095 4.15C407.695 3.73 407.495 3.24 407.495 2.68C407.495 2.12 407.695 1.64 408.095 1.24C408.495 0.819999 408.985 0.609998 409.565 0.609998C410.145 0.609998 410.635 0.819999 411.035 1.24C411.435 1.64 411.635 2.12 411.635 2.68C411.635 3.24 411.425 3.73 411.005 4.15ZM407.945 22V7H411.185V22H407.945ZM417.769 11.14C417.769 11.64 418.039 12.04 418.579 12.34C419.139 12.62 419.809 12.87 420.589 13.09C421.389 13.29 422.189 13.53 422.989 13.81C423.789 14.09 424.459 14.57 424.999 15.25C425.559 15.91 425.839 16.75 425.839 17.77C425.839 19.21 425.279 20.34 424.159 21.16C423.059 21.98 421.669 22.39 419.989 22.39C418.509 22.39 417.239 22.08 416.179 21.46C415.119 20.84 414.349 19.98 413.869 18.88L416.659 17.26C417.179 18.7 418.289 19.42 419.989 19.42C421.689 19.42 422.539 18.86 422.539 17.74C422.539 17.26 422.259 16.87 421.699 16.57C421.159 16.27 420.489 16.02 419.689 15.82C418.909 15.6 418.119 15.35 417.319 15.07C416.519 14.79 415.839 14.33 415.279 13.69C414.739 13.03 414.469 12.2 414.469 11.2C414.469 9.82 414.989 8.71 416.029 7.87C417.089 7.03 418.399 6.61 419.959 6.61C421.199 6.61 422.299 6.89 423.259 7.45C424.239 7.99 424.989 8.75 425.509 9.73L422.779 11.26C422.259 10.12 421.319 9.55 419.959 9.55C419.339 9.55 418.819 9.69 418.399 9.97C417.979 10.23 417.769 10.62 417.769 11.14ZM436.471 10.12H432.751V17.32C432.751 17.94 432.891 18.39 433.171 18.67C433.451 18.93 433.861 19.08 434.401 19.12C434.961 19.14 435.651 19.13 436.471 19.09V22C433.991 22.3 432.211 22.09 431.131 21.37C430.051 20.63 429.511 19.28 429.511 17.32V10.12H426.751V7H429.511V3.76L432.751 2.8V7H436.471V10.12ZM450.674 7H453.914V22H450.674V19.84C449.454 21.54 447.704 22.39 445.424 22.39C443.364 22.39 441.604 21.63 440.144 20.11C438.684 18.57 437.954 16.7 437.954 14.5C437.954 12.28 438.684 10.41 440.144 8.89C441.604 7.37 443.364 6.61 445.424 6.61C447.704 6.61 449.454 7.45 450.674 9.13V7ZM442.544 17.95C443.444 18.85 444.574 19.3 445.934 19.3C447.294 19.3 448.424 18.85 449.324 17.95C450.224 17.03 450.674 15.88 450.674 14.5C450.674 13.12 450.224 11.98 449.324 11.08C448.424 10.16 447.294 9.7 445.934 9.7C444.574 9.7 443.444 10.16 442.544 11.08C441.644 11.98 441.194 13.12 441.194 14.5C441.194 15.88 441.644 17.03 442.544 17.95ZM465.581 6.61C467.301 6.61 468.691 7.16 469.751 8.26C470.811 9.36 471.341 10.87 471.341 12.79V22H468.101V13.12C468.101 12 467.801 11.14 467.201 10.54C466.601 9.94 465.781 9.64 464.741 9.64C463.601 9.64 462.681 10 461.981 10.72C461.281 11.42 460.931 12.5 460.931 13.96V22H457.691V7H460.931V8.92C461.911 7.38 463.461 6.61 465.581 6.61ZM481.909 22.39C479.649 22.39 477.759 21.63 476.239 20.11C474.739 18.59 473.989 16.72 473.989 14.5C473.989 12.26 474.739 10.39 476.239 8.89C477.759 7.37 479.649 6.61 481.909 6.61C483.369 6.61 484.699 6.96 485.899 7.66C487.099 8.36 487.999 9.3 488.599 10.48L485.809 12.1C485.469 11.38 484.949 10.82 484.249 10.42C483.569 10 482.779 9.79 481.879 9.79C480.559 9.79 479.449 10.24 478.549 11.14C477.669 12.04 477.229 13.16 477.229 14.5C477.229 15.84 477.669 16.96 478.549 17.86C479.449 18.76 480.559 19.21 481.879 19.21C482.759 19.21 483.549 19 484.249 18.58C484.969 18.16 485.509 17.6 485.869 16.9L488.659 18.49C488.019 19.69 487.099 20.64 485.899 21.34C484.699 22.04 483.369 22.39 481.909 22.39ZM493.317 15.88C493.557 17.02 494.107 17.9 494.967 18.52C495.827 19.12 496.877 19.42 498.117 19.42C499.837 19.42 501.127 18.8 501.987 17.56L504.657 19.12C503.177 21.3 500.987 22.39 498.087 22.39C495.647 22.39 493.677 21.65 492.177 20.17C490.677 18.67 489.927 16.78 489.927 14.5C489.927 12.26 490.667 10.39 492.147 8.89C493.627 7.37 495.527 6.61 497.847 6.61C500.047 6.61 501.847 7.38 503.247 8.92C504.667 10.46 505.377 12.33 505.377 14.53C505.377 14.87 505.337 15.32 505.257 15.88H493.317ZM493.287 13.24H502.107C501.887 12.02 501.377 11.1 500.577 10.48C499.797 9.86 498.877 9.55 497.817 9.55C496.617 9.55 495.617 9.88 494.817 10.54C494.017 11.2 493.507 12.1 493.287 13.24Z" fill="url(#paint0_linear_3194_319)"/>
</g>
<defs>
<filter id="filter0_i_3194_319" x="0.148438" y="0.101562" width="505.23" height="22.3477" filterUnits="userSpaceOnUse" color-interpolation-filters="sRGB">
<feFlood flood-opacity="0" result="BackgroundImageFix"/>
<feBlend mode="normal" in="SourceGraphic" in2="BackgroundImageFix" result="shape"/>
<feColorMatrix in="SourceAlpha" type="matrix" values="0 0 0 0 0 0 0 0 0 0 0 0 0 0 0 0 0 0 127 0" result="hardAlpha"/>
<feOffset/>
<feGaussianBlur stdDeviation="9.45"/>
<feComposite in2="hardAlpha" operator="arithmetic" k2="-1" k3="1"/>
<feColorMatrix type="matrix" values="0 0 0 0 1 0 0 0 0 0.584079 0 0 0 0 0.13 0 0 0 0.67 0"/>
<feBlend mode="normal" in2="shape" result="effect1_innerShadow_3194_319"/>
</filter>
<linearGradient id="paint0_linear_3194_319" x1="0" y1="12" x2="714" y2="12" gradientUnits="userSpaceOnUse">
<stop stop-color="#FF9522"/>
<stop offset="1" stop-color="#D63715"/>
</linearGradient>
</defs>
</svg>
