<svg width="211" height="23" viewBox="0 0 211 23" fill="none" xmlns="http://www.w3.org/2000/svg">
<g filter="url(#filter0_i_3194_307)">
<path d="M7.44 22L0.15 0.999999H3.93L9.51 17.83L15.12 0.999999H18.87L11.58 22H7.44ZM23.3777 4.15C22.9777 4.55 22.4977 4.75 21.9377 4.75C21.3777 4.75 20.8877 4.55 20.4677 4.15C20.0677 3.73 19.8677 3.24 19.8677 2.68C19.8677 2.12 20.0677 1.64 20.4677 1.24C20.8677 0.819999 21.3577 0.609998 21.9377 0.609998C22.5177 0.609998 23.0077 0.819999 23.4077 1.24C23.8077 1.64 24.0077 2.12 24.0077 2.68C24.0077 3.24 23.7977 3.73 23.3777 4.15ZM20.3177 22V7H23.5577V22H20.3177ZM30.1418 11.14C30.1418 11.64 30.4118 12.04 30.9518 12.34C31.5118 12.62 32.1818 12.87 32.9618 13.09C33.7618 13.29 34.5618 13.53 35.3618 13.81C36.1618 14.09 36.8318 14.57 37.3718 15.25C37.9318 15.91 38.2118 16.75 38.2118 17.77C38.2118 19.21 37.6518 20.34 36.5318 21.16C35.4318 21.98 34.0418 22.39 32.3618 22.39C30.8818 22.39 29.6118 22.08 28.5518 21.46C27.4918 20.84 26.7218 19.98 26.2418 18.88L29.0318 17.26C29.5518 18.7 30.6618 19.42 32.3618 19.42C34.0618 19.42 34.9118 18.86 34.9118 17.74C34.9118 17.26 34.6318 16.87 34.0718 16.57C33.5318 16.27 32.8618 16.02 32.0618 15.82C31.2818 15.6 30.4918 15.35 29.6918 15.07C28.8918 14.79 28.2118 14.33 27.6518 13.69C27.1118 13.03 26.8418 12.2 26.8418 11.2C26.8418 9.82 27.3618 8.71 28.4018 7.87C29.4618 7.03 30.7718 6.61 32.3318 6.61C33.5718 6.61 34.6718 6.89 35.6318 7.45C36.6118 7.99 37.3618 8.75 37.8818 9.73L35.1518 11.26C34.6318 10.12 33.6918 9.55 32.3318 9.55C31.7118 9.55 31.1918 9.69 30.7718 9.97C30.3518 10.23 30.1418 10.62 30.1418 11.14ZM52.5591 7H55.7991V22H52.5591V19.84C51.3391 21.54 49.5891 22.39 47.3091 22.39C45.2491 22.39 43.4891 21.63 42.0291 20.11C40.5691 18.57 39.8391 16.7 39.8391 14.5C39.8391 12.28 40.5691 10.41 42.0291 8.89C43.4891 7.37 45.2491 6.61 47.3091 6.61C49.5891 6.61 51.3391 7.45 52.5591 9.13V7ZM44.4291 17.95C45.3291 18.85 46.4591 19.3 47.8191 19.3C49.1791 19.3 50.3091 18.85 51.2091 17.95C52.1091 17.03 52.5591 15.88 52.5591 14.5C52.5591 13.12 52.1091 11.98 51.2091 11.08C50.3091 10.16 49.1791 9.7 47.8191 9.7C46.4591 9.7 45.3291 10.16 44.4291 11.08C43.5291 11.98 43.0791 13.12 43.0791 14.5C43.0791 15.88 43.5291 17.03 44.4291 17.95ZM80.9655 22L79.4955 17.77H70.5555L69.0855 22H65.3355L72.9555 0.999999H77.0955L84.6855 22H80.9655ZM71.6955 14.53H78.3555L75.0255 5.05L71.6955 14.53ZM89.468 11.14C89.468 11.64 89.738 12.04 90.278 12.34C90.838 12.62 91.508 12.87 92.288 13.09C93.088 13.29 93.888 13.53 94.688 13.81C95.488 14.09 96.158 14.57 96.698 15.25C97.258 15.91 97.538 16.75 97.538 17.77C97.538 19.21 96.978 20.34 95.858 21.16C94.758 21.98 93.368 22.39 91.688 22.39C90.208 22.39 88.938 22.08 87.878 21.46C86.818 20.84 86.048 19.98 85.568 18.88L88.358 17.26C88.878 18.7 89.988 19.42 91.688 19.42C93.388 19.42 94.238 18.86 94.238 17.74C94.238 17.26 93.958 16.87 93.398 16.57C92.858 16.27 92.188 16.02 91.388 15.82C90.608 15.6 89.818 15.35 89.018 15.07C88.218 14.79 87.538 14.33 86.978 13.69C86.438 13.03 86.168 12.2 86.168 11.2C86.168 9.82 86.688 8.71 87.728 7.87C88.788 7.03 90.098 6.61 91.658 6.61C92.898 6.61 93.998 6.89 94.958 7.45C95.938 7.99 96.688 8.75 97.208 9.73L94.478 11.26C93.958 10.12 93.018 9.55 91.658 9.55C91.038 9.55 90.518 9.69 90.098 9.97C89.678 10.23 89.468 10.62 89.468 11.14ZM102.388 11.14C102.388 11.64 102.658 12.04 103.198 12.34C103.758 12.62 104.428 12.87 105.208 13.09C106.008 13.29 106.808 13.53 107.608 13.81C108.408 14.09 109.078 14.57 109.618 15.25C110.178 15.91 110.458 16.75 110.458 17.77C110.458 19.21 109.898 20.34 108.778 21.16C107.678 21.98 106.288 22.39 104.608 22.39C103.128 22.39 101.858 22.08 100.798 21.46C99.7379 20.84 98.9679 19.98 98.4879 18.88L101.278 17.26C101.798 18.7 102.908 19.42 104.608 19.42C106.308 19.42 107.158 18.86 107.158 17.74C107.158 17.26 106.878 16.87 106.318 16.57C105.778 16.27 105.108 16.02 104.308 15.82C103.528 15.6 102.738 15.35 101.938 15.07C101.138 14.79 100.458 14.33 99.8979 13.69C99.3579 13.03 99.0879 12.2 99.0879 11.2C99.0879 9.82 99.6079 8.71 100.648 7.87C101.708 7.03 103.018 6.61 104.578 6.61C105.818 6.61 106.918 6.89 107.878 7.45C108.858 7.99 109.608 8.75 110.128 9.73L107.398 11.26C106.878 10.12 105.938 9.55 104.578 9.55C103.958 9.55 103.438 9.69 103.018 9.97C102.598 10.23 102.388 10.62 102.388 11.14ZM116.19 4.15C115.79 4.55 115.31 4.75 114.75 4.75C114.19 4.75 113.7 4.55 113.28 4.15C112.88 3.73 112.68 3.24 112.68 2.68C112.68 2.12 112.88 1.64 113.28 1.24C113.68 0.819999 114.17 0.609998 114.75 0.609998C115.33 0.609998 115.82 0.819999 116.22 1.24C116.62 1.64 116.82 2.12 116.82 2.68C116.82 3.24 116.61 3.73 116.19 4.15ZM113.13 22V7H116.37V22H113.13ZM122.954 11.14C122.954 11.64 123.224 12.04 123.764 12.34C124.324 12.62 124.994 12.87 125.774 13.09C126.574 13.29 127.374 13.53 128.174 13.81C128.974 14.09 129.644 14.57 130.184 15.25C130.744 15.91 131.024 16.75 131.024 17.77C131.024 19.21 130.464 20.34 129.344 21.16C128.244 21.98 126.854 22.39 125.174 22.39C123.694 22.39 122.424 22.08 121.364 21.46C120.304 20.84 119.534 19.98 119.054 18.88L121.844 17.26C122.364 18.7 123.474 19.42 125.174 19.42C126.874 19.42 127.724 18.86 127.724 17.74C127.724 17.26 127.444 16.87 126.884 16.57C126.344 16.27 125.674 16.02 124.874 15.82C124.094 15.6 123.304 15.35 122.504 15.07C121.704 14.79 121.024 14.33 120.464 13.69C119.924 13.03 119.654 12.2 119.654 11.2C119.654 9.82 120.174 8.71 121.214 7.87C122.274 7.03 123.584 6.61 125.144 6.61C126.384 6.61 127.484 6.89 128.444 7.45C129.424 7.99 130.174 8.75 130.694 9.73L127.964 11.26C127.444 10.12 126.504 9.55 125.144 9.55C124.524 9.55 124.004 9.69 123.584 9.97C123.164 10.23 122.954 10.62 122.954 11.14ZM141.656 10.12H137.936V17.32C137.936 17.94 138.076 18.39 138.356 18.67C138.636 18.93 139.046 19.08 139.586 19.12C140.146 19.14 140.836 19.13 141.656 19.09V22C139.176 22.3 137.396 22.09 136.316 21.37C135.236 20.63 134.696 19.28 134.696 17.32V10.12H131.936V7H134.696V3.76L137.936 2.8V7H141.656V10.12ZM155.86 7H159.1V22H155.86V19.84C154.64 21.54 152.89 22.39 150.61 22.39C148.55 22.39 146.79 21.63 145.33 20.11C143.87 18.57 143.14 16.7 143.14 14.5C143.14 12.28 143.87 10.41 145.33 8.89C146.79 7.37 148.55 6.61 150.61 6.61C152.89 6.61 154.64 7.45 155.86 9.13V7ZM147.73 17.95C148.63 18.85 149.76 19.3 151.12 19.3C152.48 19.3 153.61 18.85 154.51 17.95C155.41 17.03 155.86 15.88 155.86 14.5C155.86 13.12 155.41 11.98 154.51 11.08C153.61 10.16 152.48 9.7 151.12 9.7C149.76 9.7 148.63 10.16 147.73 11.08C146.83 11.98 146.38 13.12 146.38 14.5C146.38 15.88 146.83 17.03 147.73 17.95ZM170.766 6.61C172.486 6.61 173.876 7.16 174.936 8.26C175.996 9.36 176.526 10.87 176.526 12.79V22H173.286V13.12C173.286 12 172.986 11.14 172.386 10.54C171.786 9.94 170.966 9.64 169.926 9.64C168.786 9.64 167.866 10 167.166 10.72C166.466 11.42 166.116 12.5 166.116 13.96V22H162.876V7H166.116V8.92C167.096 7.38 168.646 6.61 170.766 6.61ZM187.095 22.39C184.835 22.39 182.945 21.63 181.425 20.11C179.925 18.59 179.175 16.72 179.175 14.5C179.175 12.26 179.925 10.39 181.425 8.89C182.945 7.37 184.835 6.61 187.095 6.61C188.555 6.61 189.885 6.96 191.085 7.66C192.285 8.36 193.185 9.3 193.785 10.48L190.995 12.1C190.655 11.38 190.135 10.82 189.435 10.42C188.755 10 187.965 9.79 187.065 9.79C185.745 9.79 184.635 10.24 183.735 11.14C182.855 12.04 182.415 13.16 182.415 14.5C182.415 15.84 182.855 16.96 183.735 17.86C184.635 18.76 185.745 19.21 187.065 19.21C187.945 19.21 188.735 19 189.435 18.58C190.155 18.16 190.695 17.6 191.055 16.9L193.845 18.49C193.205 19.69 192.285 20.64 191.085 21.34C189.885 22.04 188.555 22.39 187.095 22.39ZM198.503 15.88C198.743 17.02 199.293 17.9 200.153 18.52C201.013 19.12 202.063 19.42 203.303 19.42C205.023 19.42 206.313 18.8 207.173 17.56L209.843 19.12C208.363 21.3 206.173 22.39 203.273 22.39C200.833 22.39 198.863 21.65 197.363 20.17C195.863 18.67 195.113 16.78 195.113 14.5C195.113 12.26 195.853 10.39 197.333 8.89C198.813 7.37 200.713 6.61 203.033 6.61C205.233 6.61 207.033 7.38 208.433 8.92C209.853 10.46 210.563 12.33 210.563 14.53C210.563 14.87 210.523 15.32 210.443 15.88H198.503ZM198.472 13.24H207.293C207.073 12.02 206.563 11.1 205.763 10.48C204.983 9.86 204.063 9.55 203.003 9.55C201.803 9.55 200.803 9.88 200.003 10.54C199.203 11.2 198.693 12.1 198.472 13.24Z" fill="url(#paint0_linear_3194_307)"/>
</g>
<defs>
<filter id="filter0_i_3194_307" x="0.148438" y="0.609375" width="210.414" height="21.8398" filterUnits="userSpaceOnUse" color-interpolation-filters="sRGB">
<feFlood flood-opacity="0" result="BackgroundImageFix"/>
<feBlend mode="normal" in="SourceGraphic" in2="BackgroundImageFix" result="shape"/>
<feColorMatrix in="SourceAlpha" type="matrix" values="0 0 0 0 0 0 0 0 0 0 0 0 0 0 0 0 0 0 127 0" result="hardAlpha"/>
<feOffset/>
<feGaussianBlur stdDeviation="9.45"/>
<feComposite in2="hardAlpha" operator="arithmetic" k2="-1" k3="1"/>
<feColorMatrix type="matrix" values="0 0 0 0 1 0 0 0 0 0.584079 0 0 0 0 0.13 0 0 0 0.67 0"/>
<feBlend mode="normal" in2="shape" result="effect1_innerShadow_3194_307"/>
</filter>
<linearGradient id="paint0_linear_3194_307" x1="0" y1="12" x2="257" y2="12" gradientUnits="userSpaceOnUse">
<stop stop-color="#FF9522"/>
<stop offset="1" stop-color="#D63715"/>
</linearGradient>
</defs>
</svg>
